<svg width="608" height="545" viewBox="0 0 608 545" fill="none" xmlns="http://www.w3.org/2000/svg">
<path d="M18.241 334.166C37.4732 385.687 76.7558 441.502 132.052 457.965C215.593 482.921 225.571 550.288 375.204 544.036C397.05 543.222 418.743 540.037 439.902 534.536C450.248 531.822 460.408 528.443 470.319 524.42C557.736 488.999 603.335 411.046 607.117 329.483C612.12 222.147 537.297 171.068 488.666 141.121C440.036 111.174 381.427 -4.83014 234.288 0.161014C211.818 0.849433 189.501 4.12694 167.78 9.92865C118.278 23.3457 67.9444 52.984 38.6937 96.3346C36.4942 99.5816 34.402 102.922 32.4037 106.317C-6.74474 172.691 -7.97864 263.914 18.241 334.166Z" fill="#35BFEF"/>
<path opacity="0.7" d="M18.241 334.166C37.4732 385.687 76.7558 441.502 132.052 457.965C215.593 482.921 225.571 550.288 375.204 544.036C397.05 543.222 418.743 540.037 439.902 534.536C450.248 531.822 460.408 528.443 470.319 524.42C557.736 488.999 603.335 411.046 607.117 329.483C612.12 222.147 537.297 171.068 488.666 141.121C440.036 111.174 381.427 -4.83014 234.288 0.161014C211.818 0.849433 189.501 4.12694 167.78 9.92865C118.278 23.3457 67.9444 52.984 38.6937 96.3346C36.4942 99.5816 34.402 102.922 32.4037 106.317C-6.74474 172.691 -7.97864 263.914 18.241 334.166Z" fill="white"/>
</svg>
