<svg width="112" height="117" viewBox="0 0 112 117" fill="none" xmlns="http://www.w3.org/2000/svg">
<rect x="0.67432" y="0.212545" width="72" height="89" transform="matrix(0.886914 -0.461934 0.461725 0.887023 0.140228 37.0567)" fill="#263238" stroke="#263238"/>
<rect x="0.67432" y="0.212545" width="72" height="89" transform="matrix(0.886914 -0.461934 0.461725 0.887023 5.14023 34.0567)" fill="#35BFEF" stroke="#263238"/>
<path d="M54.1474 32.9356L21.5497 49.9136L14.1621 35.7212L66.4901 8.4671L73.8777 22.6595L67.015 26.2338" stroke="white"/>
<path d="M58.1621 31.7212L64.3705 28.4877" stroke="white"/>
<rect x="0.67432" y="0.212545" width="14" height="25" transform="matrix(0.886914 -0.461934 0.461725 0.887023 75.1402 59.0567)" stroke="#263238"/>
<rect x="0.67432" y="0.212545" width="14" height="25" transform="matrix(0.886914 -0.461934 0.461725 0.887023 63.1402 66.0567)" stroke="#263238"/>
<rect x="0.67432" y="0.212545" width="14" height="25" transform="matrix(0.886914 -0.461934 0.461725 0.887023 37.1402 79.0567)" stroke="#263238"/>
<rect x="0.67432" y="0.212545" width="14" height="13" transform="matrix(0.886914 -0.461934 0.461725 0.887023 43.1402 90.0567)" fill="#263238" stroke="#263238"/>
<rect x="0.67432" y="0.212545" width="43" height="13" transform="matrix(0.886914 -0.461934 0.461725 0.887023 37.1402 79.0567)" stroke="#263238"/>
<rect x="0.67432" y="0.212545" width="43" height="13" transform="matrix(0.886914 -0.461934 0.461725 0.887023 43.1402 90.0567)" stroke="#263238"/>
<rect x="0.67432" y="0.212545" width="14" height="25" transform="matrix(0.886914 -0.461934 0.461725 0.887023 64.1402 37.0567)" stroke="#263238"/>
<rect x="0.67432" y="0.212545" width="14" height="25" transform="matrix(0.886914 -0.461934 0.461725 0.887023 38.1402 50.0567)" stroke="#263238"/>
<rect x="0.67432" y="0.212545" width="14" height="25" transform="matrix(0.886914 -0.461934 0.461725 0.887023 25.1402 57.0567)" stroke="#263238"/>
<rect x="0.67432" y="0.212545" width="58" height="13" transform="matrix(0.886914 -0.461934 0.461725 0.887023 25.1402 57.0567)" stroke="#263238"/>
<rect x="0.67432" y="0.212545" width="58" height="13" transform="matrix(0.886914 -0.461934 0.461725 0.887023 31.1402 68.0567)" stroke="#263238"/>
<path d="M86.1621 62.7212L88.009 66.2693L89.8559 69.8174" stroke="white"/>
<path d="M91.1621 64.7212L87.6145 66.5689L84.0668 68.4167" stroke="white"/>
</svg>
