<svg width="94" height="87" viewBox="0 0 94 87" fill="none" xmlns="http://www.w3.org/2000/svg">
<path d="M75.2778 37.2589C79.1901 56.1957 67.2263 74.6633 48.5735 78.5192C29.9207 82.375 11.6187 70.1639 7.70639 51.2271C3.79408 32.2904 15.7579 13.8227 34.4107 9.96688C53.0635 6.11102 71.3655 18.3222 75.2778 37.2589Z" fill="#263238" stroke="#263238"/>
<path d="M79.2778 36.2589C83.1901 55.1957 71.2263 73.6633 52.5735 77.5192C33.9207 81.375 15.6187 69.1639 11.7064 50.2271C7.79408 31.2904 19.7579 12.8227 38.4107 8.96688C57.0635 5.11102 75.3655 17.3222 79.2778 36.2589Z" fill="#35BFEF" stroke="#263238"/>
<path d="M73.4293 56.7444C76.3343 50.8629 77.3721 44.0046 75.9421 37.083C72.534 20.5867 56.3986 9.97817 39.9027 13.3882C23.4068 16.7982 12.797 32.9354 16.2051 49.4317C19.6132 65.928 35.7486 76.5366 52.2446 73.1266C56.3644 72.2749 60.1172 70.6294 63.3761 68.3827M66.356 66.0568C67.6113 64.8745 70.3188 62.1232 71.1065 60.5761" stroke="#263238"/>
<path d="M33.6886 41.0911L47.8174 50.4197L80.9368 7.83332" stroke="white"/>
<path d="M39.0342 13.5625L40.4505 20.4177" stroke="#263238"/>
<path d="M50.0342 66.5625L51.4505 73.4177" stroke="#263238"/>
<path d="M75.0342 37.5625L68.1791 38.9796" stroke="#263238"/>
<path d="M23.0342 48.5625L16.1791 49.9796" stroke="#263238"/>
</svg>
