<svg width="94" height="94" viewBox="0 0 94 94" fill="none" xmlns="http://www.w3.org/2000/svg">
<path d="M23.5215 69.6042C11.0613 56.7227 11.3642 36.1352 24.1982 23.6207C37.0321 11.1062 57.5371 11.4037 69.9973 24.2852C82.4576 37.1667 82.1546 57.7543 69.3207 70.2687C56.4867 82.7832 35.9817 82.4857 23.5215 69.6042Z" fill="white" stroke="#263238" stroke-linejoin="round"/>
<path d="M37.6379 76.8087C21.2396 69.6393 13.7392 50.4787 20.8853 34.0122C28.0313 17.5457 47.1177 10.0088 63.5159 17.1782C79.9141 24.3475 87.4145 43.5082 80.2685 59.9747C73.1225 76.4412 54.0361 83.978 37.6379 76.8087Z" fill="white" stroke="#263238" stroke-linejoin="round"/>
<path d="M40.1977 70.9686C27.014 65.2156 20.975 49.8199 26.7093 36.5813C32.4435 23.3427 47.7796 17.2743 60.9633 23.0273C74.1471 28.7803 80.1861 44.176 74.4518 57.4146C68.7175 70.6532 53.3815 76.7215 40.1977 70.9686Z" fill="white" stroke="#263238" stroke-linejoin="round"/>
<path d="M74.3531 47.3434C74.4592 40.6104 71.9741 34.0967 67.4155 29.1591C62.857 24.2216 56.5764 21.2407 49.8819 20.8375C50.2488 20.8428 50.6276 20.8483 51.0064 20.8538C57.9125 20.954 64.4952 23.8047 69.3065 28.7787C74.1177 33.7527 76.7633 40.4427 76.6612 47.3768C76.5592 54.311 73.7178 60.9213 68.7623 65.7537C63.8067 70.586 57.1429 73.2445 50.2368 73.1444L49.1123 73.128C55.8158 72.9192 62.1814 70.1218 66.8834 65.3186C71.5853 60.5153 74.261 54.0765 74.3531 47.3434V47.3434Z" fill="white" stroke="#263238" stroke-linejoin="round"/>
<path d="M26.5237 21.5686L30.3706 21.6244" stroke="#263238" stroke-linejoin="round"/>
<path d="M23.616 24.462L27.1433 24.5132" stroke="#263238" stroke-linejoin="round"/>
<path d="M19.5015 28.9194L23.6324 28.9794" stroke="#263238" stroke-linejoin="round"/>
<path d="M17.1814 34.5322L20.614 34.582" stroke="#263238" stroke-linejoin="round"/>
<path d="M15.0677 40.5875L18.7607 40.6411" stroke="#263238" stroke-linejoin="round"/>
<path d="M14.8784 53.4581L18.8792 53.5161" stroke="#263238" stroke-linejoin="round"/>
<path d="M26.6073 68.9858L22.9616 68.933" stroke="#263238" stroke-linejoin="round"/>
<path d="M29.7719 71.9677L26.0196 71.9132" stroke="#263238" stroke-linejoin="round"/>
<path d="M34.4954 75.1981L30.5183 75.1404" stroke="#263238" stroke-linejoin="round"/>
<path d="M31.1273 18.4735L34.9506 18.5289" stroke="#263238" stroke-linejoin="round"/>
<path d="M54.1372 63.4782L35.7785 39.9376L37.144 38.8638L55.5145 62.4046L54.1372 63.4782ZM44.1828 56.1066L43.1138 54.736L54.3486 45.9007C54.5403 45.749 54.7681 45.5502 55.0082 45.3279C55.2445 45.1094 55.4692 44.8786 55.6813 44.6363C56.2287 44.0486 56.6478 43.3526 56.9117 42.5929C57.1757 41.8333 57.2787 41.0267 57.2142 40.2248C57.0883 38.6167 56.484 37.0839 55.4795 35.8253C54.8203 34.9665 53.9979 34.2475 53.06 33.71C52.161 33.1583 51.1421 32.8335 50.0906 32.7636C49.0073 32.7076 47.9297 32.9554 46.9783 33.4792C46.6863 33.6123 46.4066 33.7714 46.1426 33.9544C45.8676 34.1406 45.6282 34.3154 45.4366 34.4672L38.1663 40.1862L37.0973 38.8156L44.3676 33.0966L45.0856 32.5721C45.369 32.3795 45.6642 32.2052 45.9694 32.05C47.1679 31.3811 48.5096 31.0131 49.8801 30.9775C51.2004 30.9635 52.5041 31.2721 53.679 31.8766C54.9439 32.5453 56.0491 33.482 56.9179 34.6218C58.2234 36.2276 58.9565 38.2256 59.0008 40.2983C59.0128 42.3862 58.2196 44.3981 56.7872 45.9124C56.5226 46.1938 56.2824 46.428 56.0662 46.6389C55.85 46.8497 55.6103 47.0483 55.3828 47.2233L44.1828 56.1066ZM48.0056 61.0119L46.9366 59.6413L58.6624 50.4209L59.7314 51.7915L48.0056 61.0119Z" fill="#263238"/>
</svg>
