<svg width="71" height="71" viewBox="0 0 71 71" fill="none" xmlns="http://www.w3.org/2000/svg">
<path d="M18.1397 52.2938C8.95204 42.7398 9.21708 27.5138 18.7317 18.2854C28.2463 9.05707 43.4075 9.32097 52.5952 18.8749C61.7829 28.4288 61.5178 43.6548 52.0032 52.8832C42.4886 62.1116 27.3274 61.8477 18.1397 52.2938Z" fill="#35BFEF" stroke="#263238" stroke-linejoin="round"/>
<path d="M28.9118 57.5051C16.7831 52.1587 11.2537 37.9786 16.5617 25.833C21.8697 13.6874 36.0049 8.17552 48.1337 13.5219C60.2624 18.8683 65.7918 33.0484 60.4838 45.194C55.1758 57.3397 41.0406 62.8515 28.9118 57.5051Z" fill="#35BFEF" stroke="#263238" stroke-linejoin="round"/>
<path d="M30.027 53.3537C20.1694 49.0166 15.6688 37.4985 19.9746 27.6272C24.2805 17.7559 35.7622 13.2694 45.6199 17.6065C55.4775 21.9435 59.9782 33.4617 55.6723 43.333C51.3665 53.2043 39.8847 57.6907 30.027 53.3537Z" fill="#35BFEF" stroke="#263238" stroke-linejoin="round"/>
<path d="M56.3149 36.1057C56.4069 31.0847 54.591 26.2221 51.2453 22.5304C47.8996 18.8388 43.2821 16.6029 38.3546 16.2884C38.6247 16.2931 38.9036 16.298 39.1824 16.3029C44.2664 16.3918 49.1065 18.5313 52.6382 22.2506C56.1698 25.9699 58.1035 30.9644 58.014 36.1354C57.9244 41.3063 55.8189 46.2301 52.1607 49.8236C48.5025 53.4172 43.5912 55.386 38.5072 55.297L37.6794 55.2825C42.6148 55.1406 47.3069 53.0676 50.7784 49.4953C54.2499 45.9229 56.233 41.1267 56.3149 36.1057V36.1057Z" fill="#35BFEF" stroke="#263238" stroke-linejoin="round"/>
<path d="M20.5674 16.8132L23.5669 16.8657" stroke="#263238" stroke-linejoin="round"/>
<path d="M18.0503 18.7271L21.0498 18.7796" stroke="#263238" stroke-linejoin="round"/>
<path d="M14.9087 21.91L17.9082 21.9625" stroke="#263238" stroke-linejoin="round"/>
<path d="M13.3584 26.6636L16.3579 26.7161" stroke="#263238" stroke-linejoin="round"/>
<path d="M11.4858 30.4707L14.4854 30.5232" stroke="#263238" stroke-linejoin="round"/>
<path d="M11.5478 39.9573L14.5474 40.0098" stroke="#263238" stroke-linejoin="round"/>
<path d="M20.6323 51.6707L17.6328 51.6182" stroke="#263238" stroke-linejoin="round"/>
<path d="M22.5459 54.188L19.5464 54.1356" stroke="#263238" stroke-linejoin="round"/>
<path d="M26.353 56.0606L23.3535 56.0081" stroke="#263238" stroke-linejoin="round"/>
<path d="M24.0312 14.577L27.0308 14.6295" stroke="#263238" stroke-linejoin="round"/>
<path d="M41.5768 48.0342L27.9221 30.5745L28.9429 29.7832L42.6063 47.2431L41.5768 48.0342ZM34.1631 42.5571L33.368 41.5405L41.7666 35.0296C41.9099 34.9178 42.0803 34.7712 42.2598 34.6073C42.4365 34.4462 42.6046 34.2759 42.7633 34.0972C43.1727 33.6636 43.4867 33.1496 43.685 32.5882C43.8834 32.0267 43.9617 31.4302 43.9151 30.8367C43.8241 29.6467 43.3759 28.5112 42.6288 27.5776C42.1385 26.9407 41.5263 26.4068 40.8275 26.007C40.1577 25.5967 39.3981 25.354 38.6137 25.2998C37.8055 25.2559 37.001 25.4368 36.2903 25.822C36.0721 25.9199 35.8631 26.0369 35.6659 26.1717C35.4603 26.3088 35.2814 26.4376 35.1381 26.5495L29.7032 30.764L28.9082 29.7474L34.3431 25.5329L34.8798 25.1465C35.0915 25.0047 35.3121 24.8764 35.5401 24.7623C36.4355 24.2702 37.4372 24.001 38.4599 23.9779C39.445 23.9706 40.4171 24.2019 41.2926 24.6519C42.2352 25.1496 43.0581 25.8452 43.7042 26.6906C44.6753 27.8816 45.2187 29.3617 45.2479 30.8953C45.2531 32.4401 44.6575 33.9268 43.5861 35.0438C43.3881 35.2515 43.2085 35.4242 43.0468 35.5797C42.8851 35.7352 42.7059 35.8816 42.5358 36.0105L34.1631 42.5571ZM37.0063 46.1952L36.2113 45.1787L44.9769 38.3839L45.772 39.4005L37.0063 46.1952Z" fill="white"/>
</svg>
