<svg width="177" height="89" viewBox="0 0 177 89" fill="none" xmlns="http://www.w3.org/2000/svg">
<path d="M44.4708 -9.40006C49.5925 -33.7091 73.4358 -49.1931 97.7264 -43.9846C122.017 -38.7761 137.556 -14.8475 132.435 9.46155C127.313 33.7706 103.47 49.2546 79.1792 44.0461C54.8886 38.8376 39.3491 14.909 44.4708 -9.40006Z" fill="#35BFEF" stroke="#263238" stroke-linejoin="round"/>
<path d="M47.1423 12.4566C42.6637 -12.0107 58.8273 -35.4166 83.2446 -39.8218C107.662 -44.2271 131.087 -27.9636 135.565 -3.49625C140.044 20.9711 123.88 44.377 99.463 48.7822C75.0457 53.1875 51.6209 36.924 47.1423 12.4566Z" fill="#35BFEF" stroke="#263238" stroke-linejoin="round"/>
<path d="M55.8219 10.9236C52.2086 -8.73908 65.1866 -27.5601 84.8089 -31.1145C104.431 -34.6689 123.268 -21.6105 126.881 -1.94792C130.494 17.7147 117.516 36.5358 97.8938 40.0902C78.2714 43.6445 59.4352 30.5862 55.8219 10.9236Z" fill="#35BFEF" stroke="#263238" stroke-linejoin="round"/>
<path d="M109.367 32.2301C117.17 27.1742 122.715 19.292 124.846 10.2254C126.978 1.15878 125.532 -8.39329 120.809 -16.4412C121.087 -16.013 121.374 -15.571 121.661 -15.129C126.895 -7.06943 128.725 2.73173 126.747 12.1184C124.769 21.5051 119.147 29.7084 111.116 34.9236C103.085 40.1389 93.304 41.9388 83.9244 39.9276C74.5449 37.9164 66.3351 32.2588 61.1012 24.1992L60.249 22.887C65.6803 30.4745 73.8184 35.6808 82.9682 37.4212C92.1179 39.1617 101.574 37.3022 109.367 32.2301Z" fill="#35BFEF" stroke="#263238" stroke-linejoin="round"/>
<path d="M46.5549 7.58569L43.5409 2.94456" stroke="#263238" stroke-linejoin="round"/>
<path d="M75.2078 21.2744L87.9841 -18.051L90.273 -17.2987L77.5056 22.0406L75.2078 21.2744ZM75.9514 4.09899L76.6952 1.80927L95.5284 7.99957C95.8508 8.10438 96.2552 8.21486 96.6961 8.32129C97.1297 8.42647 97.5685 8.50863 98.0105 8.56746C99.1084 8.74811 100.231 8.69721 101.307 8.41804C102.382 8.13887 103.387 7.63758 104.257 6.94629C106.003 5.56395 107.293 3.68648 107.958 1.55747C108.433 0.134977 108.62 -1.36853 108.51 -2.86601C108.446 -4.32952 108.03 -5.75696 107.296 -7.02616C106.521 -8.32136 105.402 -9.37632 104.065 -10.0731C103.686 -10.3083 103.287 -10.5092 102.872 -10.6735C102.446 -10.8482 102.06 -10.9904 101.737 -11.0952L89.5483 -15.1L90.2921 -17.3897L102.481 -13.385L103.639 -12.9584C104.079 -12.779 104.508 -12.5719 104.922 -12.3385C106.617 -11.4677 108.078 -10.1999 109.181 -8.64317C110.219 -7.12789 110.875 -5.38367 111.092 -3.56079C111.305 -1.58433 111.087 0.413478 110.452 2.2944C109.622 5.03834 107.899 7.4225 105.556 9.06781C103.171 10.6876 100.25 11.3181 97.4038 10.8272C96.8761 10.7378 96.4214 10.6403 96.0122 10.5525C95.603 10.4648 95.1896 10.3405 94.8127 10.2121L75.9514 4.09899ZM73.287 12.2903L74.0308 10.0005L93.686 16.4622L92.9422 18.7519L73.287 12.2903Z" fill="white"/>
</svg>
