<svg width="140" height="36" viewBox="0 0 140 36" fill="none" xmlns="http://www.w3.org/2000/svg">
<path d="M41.7314 14.2565H44.5246L46.3646 18.334L47.9618 14.2565H50.6298L46.3058 23.4088H43.6672L45.0104 20.8328L41.7314 14.2565Z" fill="#475159"/>
<path d="M56.0839 14.2565V17.6753H59.683V14.2565H62.1927V23.4088H59.683V19.703H56.0839V23.4088H53.6035V14.2565H56.0839Z" fill="#475159"/>
<path d="M66.0825 14.2565H68.5886V20.0195L72.1914 14.2565H74.7416V23.4088H72.2356V17.6459L68.6328 23.4088H66.0825V14.2565Z" fill="#475159"/>
<path d="M82.6392 23.4088H78.6279V14.2565H82.3448C83.2979 14.2565 83.9971 14.4957 84.4497 14.9705C84.7703 15.3634 84.9706 15.8404 85.0268 16.3443C85.0829 16.8482 84.9925 17.3577 84.7663 17.8115C84.5967 18.1312 84.3226 18.3832 83.9897 18.5254C84.4754 18.557 84.9365 18.75 85.2999 19.0737C85.5224 19.2895 85.6955 19.5509 85.8073 19.8399C85.9191 20.129 85.9669 20.4388 85.9476 20.7481C85.963 21.0783 85.909 21.408 85.7892 21.7161C85.6694 22.0241 85.4864 22.3036 85.252 22.5366C84.6608 23.1205 83.7898 23.4113 82.6392 23.4088ZM81.1267 16.0818V17.8667H81.572C81.7416 17.8832 81.9128 17.8661 82.0757 17.8162C82.2387 17.7663 82.3902 17.6846 82.5214 17.5759C82.6007 17.4976 82.6625 17.4033 82.7025 17.2992C82.7425 17.1951 82.7597 17.0837 82.7533 16.9724C82.7569 16.8598 82.7383 16.7475 82.6985 16.642C82.6588 16.5366 82.5985 16.44 82.5214 16.3578C82.2515 16.1485 81.912 16.0498 81.572 16.0818H81.1267ZM81.1267 19.6368V21.5577H81.6861C82.4957 21.5577 83.0072 21.4326 83.228 21.1897C83.3695 21.0273 83.4421 20.8161 83.4304 20.6009C83.438 20.4803 83.4203 20.3594 83.3785 20.2459C83.3367 20.1325 83.2716 20.0291 83.1875 19.9422C82.9741 19.7398 82.4515 19.6404 81.6456 19.6404L81.1267 19.6368Z" fill="#475159"/>
<path d="M94.8718 14.2565V16.2806H91.9057V17.8041H94.7136V19.8208H91.9057V21.3995H94.8718V23.4162H89.4106V14.2565H94.8718Z" fill="#475159"/>
<path d="M102.394 20.3764H100.822V23.4088H98.3311V14.2565H102.305C103.193 14.2076 104.066 14.5028 104.742 15.0808C105.04 15.3634 105.274 15.7068 105.429 16.0877C105.583 16.4686 105.654 16.8783 105.636 17.2889C105.663 17.7071 105.601 18.1262 105.455 18.5188C105.308 18.9114 105.08 19.2686 104.786 19.5668C104.124 20.1365 103.266 20.4267 102.394 20.3764ZM100.822 16.1775V18.4555H101.658C102.032 18.4872 102.404 18.3855 102.71 18.1684C102.823 18.0616 102.91 17.9306 102.965 17.7853C103.02 17.6399 103.041 17.484 103.027 17.3294C103.038 17.1802 103.019 17.0302 102.969 16.8889C102.92 16.7477 102.842 16.6182 102.74 16.5087C102.441 16.2623 102.058 16.1433 101.673 16.1775H100.822Z" fill="#475159"/>
<path d="M115.737 20.3506V23.1622C115.045 23.4274 114.314 23.5802 113.573 23.6148C112.202 23.6629 110.867 23.1699 109.856 22.2421C109.398 21.8055 109.033 21.2811 108.782 20.7002C108.527 20.1293 108.396 19.5111 108.396 18.8859C108.396 18.2608 108.527 17.6426 108.782 17.0717C109.033 16.4957 109.393 15.9735 109.842 15.5334C110.321 15.0641 110.889 14.6958 111.513 14.4506C112.137 14.2053 112.804 14.0879 113.474 14.1055C114.246 14.1195 115.009 14.2781 115.722 14.5729V17.4139C115.46 17.0912 115.127 16.8329 114.75 16.6588C114.372 16.4846 113.96 16.3993 113.544 16.4093C112.913 16.3909 112.298 16.6072 111.818 17.0165C111.547 17.2473 111.332 17.5355 111.186 17.8601C111.041 18.1848 110.97 18.5378 110.979 18.8933C110.97 19.2299 111.035 19.5643 111.17 19.8728C111.304 20.1813 111.506 20.4563 111.759 20.6781C112.252 21.1081 112.89 21.3344 113.544 21.3111C113.957 21.3152 114.365 21.2317 114.744 21.0661C115.122 20.9006 115.46 20.6567 115.737 20.3506Z" fill="#475159"/>
<path d="M125.648 23.4088L125.059 21.8742H121.57L120.923 23.4088H118.288L121.968 14.2565H124.691L128.308 23.4088H125.648ZM122.262 20.06H124.396L123.315 17.1159L122.262 20.06Z" fill="#475159"/>
<path d="M132.596 14.2565H140V23.4088H137.509V16.2585H135.087V19.5926C135.087 21.0646 134.751 22.1159 134.079 22.7464C133.459 23.2884 132.653 23.5693 131.83 23.5303C131.448 23.5309 131.067 23.4889 130.693 23.4051V21.1971C130.88 21.2578 131.075 21.2901 131.271 21.2928C131.574 21.307 131.872 21.2087 132.106 21.0168C132.443 20.7248 132.611 20.1483 132.611 19.2872L132.596 14.2565Z" fill="#475159"/>
<path d="M10.6978 0L17.5721 11.9123L17.6898 12.1147H3.63574V12.1074L10.6978 0Z" fill="#00A2DB"/>
<path d="M0 8.87982L8.83948 24.1888L12.9023 17.1489L8.12923 8.87982H0Z" fill="#555E66"/>
<path d="M16.4055 31.6152L29.5727 8.87982H21.4177L8.25049 31.6152H16.4055Z" fill="#768084"/>
<path d="M23.7841 35.7444L33.4295 19.0369L33.5988 18.7573H13.8774V18.7646L23.7841 35.7444Z" fill="#35BFEF"/>
</svg>
