<svg width="228" height="58" viewBox="0 0 228 58" fill="none" xmlns="http://www.w3.org/2000/svg">
<path d="M67.998 23.1332H72.5269L75.5104 29.7495L78.1001 23.1332H82.4261L75.415 37.984H71.1367L73.3146 33.804L67.998 23.1332Z" fill="#475159"/>
<path d="M91.2691 23.1332V28.6806H97.1048V23.1332H101.174V37.984H97.1048V31.9708H91.2691V37.984H87.2474V23.1332H91.2691Z" fill="#475159"/>
<path d="M107.481 23.1332H111.545V32.4844L117.386 23.1332H121.522V37.984H117.458V28.6328L111.616 37.984H107.481V23.1332Z" fill="#475159"/>
<path d="M134.326 37.984H127.822V23.1332H133.849C135.395 23.1332 136.528 23.5213 137.262 24.2916C137.782 24.9292 138.107 25.7032 138.198 26.5209C138.289 27.3386 138.142 28.1652 137.775 28.9015C137.5 29.4204 137.056 29.8293 136.516 30.06C137.304 30.1112 138.051 30.4244 138.641 30.9497C139.001 31.2998 139.282 31.724 139.463 32.193C139.645 32.662 139.722 33.1648 139.691 33.6667C139.716 34.2024 139.628 34.7375 139.434 35.2373C139.24 35.7371 138.943 36.1907 138.563 36.5688C137.604 37.5163 136.192 37.988 134.326 37.984ZM131.874 26.095V28.9911H132.596C132.871 29.018 133.149 28.9902 133.413 28.9092C133.677 28.8282 133.923 28.6957 134.135 28.5194C134.264 28.3923 134.364 28.2392 134.429 28.0703C134.494 27.9014 134.522 27.7207 134.511 27.5401C134.517 27.3573 134.487 27.1751 134.423 27.004C134.358 26.8329 134.261 26.6762 134.135 26.5428C133.698 26.2031 133.147 26.0429 132.596 26.095H131.874ZM131.874 31.8633V34.9804H132.781C134.094 34.9804 134.923 34.7774 135.281 34.3833C135.511 34.1196 135.628 33.7769 135.609 33.4278C135.622 33.2321 135.593 33.0359 135.525 32.8518C135.457 32.6677 135.352 32.4999 135.216 32.359C134.869 32.0305 134.022 31.8693 132.715 31.8693L131.874 31.8633Z" fill="#475159"/>
<path d="M154.161 23.1332V26.4174H149.351V28.8896H153.904V32.1619H149.351V34.7236H154.161V37.996H145.306V23.1332H154.161Z" fill="#475159"/>
<path d="M166.357 33.0635H163.809V37.984H159.77V23.1331H166.214C167.653 23.0538 169.068 23.5328 170.164 24.4707C170.648 24.9292 171.028 25.4864 171.278 26.1045C171.528 26.7226 171.643 27.3873 171.614 28.0535C171.658 28.7321 171.558 29.4123 171.32 30.0493C171.082 30.6864 170.713 31.2659 170.235 31.7498C169.162 32.6741 167.771 33.1451 166.357 33.0635ZM163.809 26.2502V29.9465H165.164C165.77 29.998 166.374 29.833 166.87 29.4807C167.053 29.3074 167.194 29.0948 167.283 28.859C167.372 28.6232 167.406 28.3702 167.383 28.1192C167.402 27.8771 167.37 27.6338 167.29 27.4046C167.21 27.1754 167.083 26.9653 166.918 26.7876C166.434 26.3878 165.812 26.1948 165.187 26.2502H163.809Z" fill="#475159"/>
<path d="M187.993 33.0217V37.5838C186.87 38.0143 185.686 38.2622 184.484 38.3183C182.261 38.3963 180.097 37.5963 178.458 36.091C177.715 35.3825 177.123 34.5316 176.715 33.589C176.302 32.6626 176.089 31.6595 176.089 30.6451C176.089 29.6306 176.302 28.6276 176.715 27.7012C177.123 26.7666 177.707 25.9192 178.434 25.2051C179.21 24.4436 180.132 23.8461 181.144 23.4481C182.155 23.05 183.237 22.8597 184.323 22.8882C185.575 22.9109 186.812 23.1682 187.969 23.6466V28.2565C187.544 27.7329 187.004 27.3137 186.392 27.0312C185.78 26.7486 185.111 26.6101 184.437 26.6263C183.414 26.5965 182.417 26.9476 181.638 27.6116C181.199 27.9861 180.85 28.4538 180.614 28.9806C180.379 29.5074 180.264 30.0801 180.278 30.657C180.263 31.2031 180.368 31.7458 180.587 32.2464C180.806 32.747 181.132 33.1932 181.543 33.5531C182.342 34.2508 183.377 34.618 184.437 34.5802C185.106 34.5869 185.769 34.4514 186.382 34.1828C186.995 33.9141 187.544 33.5184 187.993 33.0217Z" fill="#475159"/>
<path d="M204.062 37.984L203.107 35.494H197.451L196.401 37.984H192.128L198.095 23.1332H202.511L208.376 37.984H204.062ZM198.572 32.55H202.033L200.279 27.7729L198.572 32.55Z" fill="#475159"/>
<path d="M215.328 23.1332H227.333V37.984H223.293V26.3816H219.367V31.7917C219.367 34.1802 218.822 35.8861 217.732 36.9092C216.727 37.7886 215.42 38.2445 214.086 38.1811C213.466 38.1821 212.848 38.114 212.243 37.978V34.3952C212.545 34.4938 212.861 34.5461 213.18 34.5505C213.671 34.5735 214.153 34.414 214.534 34.1026C215.079 33.6289 215.351 32.6934 215.351 31.2961L215.328 23.1332Z" fill="#475159"/>
<path d="M73.1059 47.4366C72.73 47.5201 72.3874 47.7134 72.1213 47.9919C71.8556 48.3128 71.6914 48.7057 71.6499 49.1205C71.8235 48.9055 72.0413 48.7304 72.2884 48.607C72.5312 48.4938 72.7963 48.4367 73.0641 48.4398C73.3193 48.4351 73.5722 48.4882 73.804 48.595C74.031 48.6972 74.2342 48.8457 74.4007 49.0309C74.5677 49.2253 74.699 49.4476 74.7885 49.6878C74.8805 49.9527 74.9268 50.2314 74.9258 50.5118C74.9304 50.7917 74.8797 51.0697 74.7766 51.3299C74.6866 51.5699 74.5463 51.7878 74.3649 51.9688C74.1832 52.1464 73.9682 52.2864 73.7324 52.3809C73.4671 52.4792 73.1859 52.5278 72.903 52.5242C72.6241 52.541 72.3453 52.4887 72.0914 52.3721C71.8375 52.2554 71.6162 52.078 71.4471 51.8554C71.0808 51.2706 70.9075 50.5855 70.9518 49.8968C70.9095 49.1717 71.0998 48.452 71.4948 47.8426C71.8767 47.3263 72.4354 46.9691 73.0641 46.8394L74.3828 46.517L74.5081 47.1141L73.1059 47.4366ZM71.6679 50.464C71.6644 50.6672 71.6968 50.8693 71.7633 51.0612C71.819 51.2354 71.9105 51.3961 72.0318 51.5329C72.1431 51.6645 72.2816 51.7704 72.4376 51.8434C72.5974 51.921 72.7732 51.9598 72.9508 51.9569C73.125 51.9579 73.2975 51.9233 73.4579 51.8554C73.609 51.7878 73.7434 51.6879 73.8518 51.5628C73.967 51.4304 74.0542 51.276 74.1083 51.109C74.1717 50.9164 74.202 50.7145 74.1978 50.5118C74.202 50.3087 74.1697 50.1064 74.1023 49.9147C74.0475 49.7449 73.9582 49.5883 73.8398 49.4549C73.7289 49.3259 73.5902 49.2238 73.434 49.1563C73.2655 49.0877 73.085 49.0532 72.903 49.0548C72.7285 49.0511 72.5554 49.0858 72.3958 49.1563C72.248 49.2212 72.1158 49.3169 72.0079 49.437C71.8982 49.5655 71.8133 49.7133 71.7574 49.8729C71.6927 50.063 71.6623 50.2632 71.6679 50.464Z" fill="#555E66"/>
<path d="M77.229 53.402C77.3103 53.4699 77.4007 53.5262 77.4975 53.5692C77.5877 53.6005 77.6825 53.6166 77.778 53.617C77.8584 53.6082 77.9356 53.5803 78.003 53.5357C78.0705 53.491 78.1263 53.4308 78.1658 53.3602C78.3357 53.0767 78.4605 52.7685 78.5358 52.4466L76.7457 48.2666H77.4736L78.8938 51.8076L80.1886 48.2666H80.8629L79.037 53.0437C78.9634 53.2495 78.8736 53.4492 78.7685 53.6408C78.6958 53.7805 78.601 53.9075 78.488 54.017C78.398 54.1019 78.2928 54.1687 78.1778 54.2141C78.0579 54.2508 77.9332 54.2689 77.8078 54.2679C77.6907 54.27 77.5739 54.2539 77.4617 54.2201C77.3639 54.186 77.2759 54.1286 77.2052 54.0529L77.229 53.402Z" fill="#555E66"/>
<path d="M83.3093 48.2726L84.4549 49.8073L84.5146 49.9327L84.5862 49.8073L85.7258 48.2726H86.4657L84.9083 50.3686L86.4777 52.4466H85.7318L84.5862 50.918L84.5146 50.7985L84.4549 50.918L83.3093 52.4466H82.5634L84.1327 50.3686L82.5753 48.2726H83.3093Z" fill="#555E66"/>
<path d="M91.2511 48.7981H89.2821V52.4466H88.5959V48.2666H91.2511V48.7981Z" fill="#555E66"/>
<path d="M94.4793 52.5243C94.2919 52.5271 94.1057 52.4947 93.9303 52.4288C93.7652 52.3661 93.6134 52.2729 93.4828 52.1541C93.3585 52.0356 93.2591 51.8935 93.1904 51.7361C93.117 51.575 93.0804 51.3996 93.083 51.2226C93.0812 51.0398 93.1242 50.8593 93.2083 50.6971C93.2975 50.5376 93.422 50.4007 93.5723 50.297C93.7431 50.177 93.9327 50.0862 94.1332 50.0283C94.3625 49.9644 94.5993 49.9323 94.8373 49.9327C95.0376 49.9337 95.2374 49.9537 95.434 49.9925C95.6217 50.0228 95.8057 50.0729 95.983 50.1417V49.8074C95.998 49.6588 95.9797 49.5088 95.9295 49.3682C95.8792 49.2277 95.7983 49.1001 95.6925 48.9948C95.5868 48.8896 95.4588 48.8092 95.3181 48.7597C95.1774 48.7102 95.0274 48.6927 94.8791 48.7086C94.397 48.7282 93.9334 48.8995 93.5544 49.1983L93.3217 48.7444C93.7946 48.4009 94.3606 48.2093 94.9447 48.1951C95.4137 48.1682 95.8745 48.3269 96.2276 48.6369C96.3859 48.8009 96.5084 48.996 96.5874 49.2098C96.6665 49.4235 96.7004 49.6514 96.687 49.879V51.5809C96.687 51.7481 96.7586 51.8316 96.9138 51.8376V52.4348H96.7288H96.5737C96.5137 52.439 96.4534 52.4305 96.3969 52.4099C96.3404 52.3893 96.2888 52.3571 96.2455 52.3153C96.1615 52.2345 96.1087 52.1267 96.0963 52.0108V51.7182C95.9161 51.9762 95.6713 52.1822 95.3863 52.3153C95.1021 52.4485 94.793 52.5198 94.4793 52.5243ZM94.6643 51.9988C94.9038 52.0003 95.1412 51.9536 95.3624 51.8615C95.5578 51.7821 95.7287 51.6523 95.8577 51.4853C95.9023 51.4464 95.9385 51.3988 95.9642 51.3454C95.9898 51.292 96.0044 51.234 96.0068 51.1748V50.5776C95.6692 50.4421 95.3085 50.3732 94.9447 50.3746C94.642 50.3619 94.3425 50.441 94.0854 50.6015C93.9816 50.6622 93.8959 50.7496 93.8371 50.8546C93.7784 50.9596 93.7488 51.0784 93.7513 51.1987C93.7518 51.3114 93.7741 51.4229 93.817 51.5271C93.8647 51.6268 93.9316 51.716 94.0138 51.7898C94.1001 51.8647 94.1991 51.9234 94.3062 51.963C94.4223 51.997 94.5438 52.0091 94.6643 51.9988Z" fill="#555E66"/>
<path d="M98.7516 51.8734C98.8999 51.8614 99.0442 51.8187 99.1752 51.748C99.3092 51.6639 99.412 51.538 99.4676 51.3897C99.5611 51.1553 99.6272 50.9108 99.6645 50.6612C99.7123 50.3447 99.7659 49.9386 99.8196 49.4371L99.9509 48.2726H102.547V52.4526H101.86V48.828H100.595L100.476 49.7297C100.421 50.1812 100.343 50.6296 100.243 51.0732C100.183 51.3641 100.078 51.644 99.933 51.9032C99.8324 52.0893 99.6787 52.2411 99.4915 52.3392C99.3049 52.4302 99.102 52.483 98.8948 52.4944L98.7516 51.8734Z" fill="#555E66"/>
<path d="M106.825 52.4466H106.139V48.8637H104.737V48.2666H108.227V48.8637H106.825V52.4466Z" fill="#555E66"/>
<path d="M112.249 52.5243C111.952 52.5288 111.657 52.4719 111.384 52.3571C111.132 52.2456 110.905 52.0853 110.715 51.8854C110.524 51.6873 110.375 51.4514 110.28 51.1927C110.172 50.9272 110.117 50.6432 110.119 50.3567C110.117 50.0721 110.172 49.79 110.28 49.5267C110.379 49.2716 110.527 49.0383 110.715 48.8399C110.908 48.6407 111.137 48.4805 111.39 48.3682C111.663 48.2519 111.958 48.1929 112.255 48.195C112.551 48.1907 112.844 48.2519 113.114 48.3742C113.362 48.4858 113.587 48.6439 113.776 48.8399C113.958 49.038 114.1 49.2691 114.194 49.5207C114.294 49.7776 114.345 50.0511 114.343 50.3268C114.346 50.3805 114.346 50.4344 114.343 50.488C114.347 50.5258 114.347 50.5638 114.343 50.6015H110.882C110.899 50.7972 110.947 50.9888 111.026 51.1688C111.103 51.3309 111.208 51.4784 111.336 51.6047C111.463 51.7269 111.61 51.826 111.771 51.8973C111.937 51.9637 112.113 51.9981 112.291 51.9988C112.418 51.9986 112.544 51.9805 112.667 51.9451C112.787 51.9144 112.904 51.8683 113.013 51.8077C113.115 51.7482 113.209 51.676 113.293 51.5928C113.373 51.5068 113.437 51.4078 113.484 51.3002L114.081 51.4733C114.012 51.6296 113.917 51.773 113.8 51.8973C113.677 52.026 113.537 52.1366 113.383 52.2257C113.219 52.3242 113.042 52.3986 112.857 52.4467C112.659 52.5011 112.454 52.5272 112.249 52.5243ZM113.681 50.076C113.666 49.8871 113.615 49.7027 113.532 49.5326C113.456 49.3714 113.351 49.2256 113.221 49.1027C113.095 48.9847 112.947 48.8915 112.786 48.828C112.617 48.7611 112.437 48.7267 112.255 48.7265C112.075 48.7261 111.897 48.7606 111.73 48.828C111.566 48.8899 111.418 48.9855 111.294 49.1087C111.168 49.2304 111.065 49.3741 110.99 49.5326C110.911 49.7041 110.862 49.8879 110.847 50.076H113.681Z" fill="#555E66"/>
<path d="M118.83 52.5242C118.507 52.5299 118.188 52.4429 117.912 52.2734C117.655 52.1078 117.441 51.885 117.285 51.6225V54.1544H116.581V48.2726H117.178V49.0548C117.341 48.8066 117.562 48.6017 117.822 48.4577C118.085 48.3004 118.387 48.2178 118.693 48.2189C118.968 48.2151 119.24 48.2764 119.487 48.398C119.725 48.5149 119.938 48.6771 120.113 48.8757C120.29 49.0804 120.43 49.315 120.525 49.5684C120.621 49.8284 120.669 50.1034 120.668 50.3805C120.671 50.6684 120.626 50.9548 120.537 51.2284C120.45 51.4788 120.319 51.7114 120.149 51.9151C119.984 52.1094 119.781 52.2679 119.552 52.3809C119.325 52.4814 119.079 52.5304 118.83 52.5242ZM118.616 51.9271C118.81 51.9275 119.002 51.8825 119.177 51.7957C119.341 51.7072 119.487 51.5876 119.606 51.4434C119.729 51.2946 119.824 51.1246 119.887 50.9418C119.95 50.749 119.982 50.5475 119.982 50.3447C119.984 50.1401 119.945 49.9372 119.869 49.7475C119.797 49.5658 119.694 49.3981 119.564 49.2519C119.436 49.1126 119.282 48.9991 119.111 48.9175C118.936 48.8332 118.744 48.7903 118.55 48.7921C118.415 48.7948 118.282 48.8211 118.156 48.8697C118.019 48.9218 117.889 48.9899 117.768 49.0728C117.65 49.1527 117.545 49.2515 117.458 49.3654C117.374 49.4726 117.315 49.5969 117.285 49.7296V50.9239C117.343 51.0628 117.419 51.1933 117.512 51.312C117.6 51.4299 117.704 51.5345 117.822 51.6225C117.938 51.7081 118.064 51.7784 118.198 51.8315C118.331 51.8863 118.472 51.9166 118.616 51.9211V51.9271Z" fill="#555E66"/>
<path d="M122.721 50.3506C122.72 50.0666 122.772 49.785 122.876 49.5206C122.972 49.2644 123.119 49.0302 123.307 48.8321C123.496 48.6341 123.723 48.4763 123.974 48.3681C124.249 48.2501 124.546 48.1911 124.845 48.1949C125.222 48.1867 125.594 48.2839 125.919 48.4756C126.212 48.6523 126.448 48.9093 126.599 49.216L125.913 49.431C125.811 49.2382 125.655 49.0787 125.466 48.9712C125.272 48.8583 125.051 48.8005 124.827 48.804C124.64 48.8038 124.454 48.8446 124.284 48.9234C124.116 48.9989 123.966 49.1087 123.842 49.2459C123.578 49.5522 123.435 49.9456 123.443 50.3506C123.442 50.7601 123.588 51.1562 123.854 51.4673C123.978 51.6066 124.128 51.7203 124.296 51.8017C124.578 51.9338 124.899 51.9572 125.197 51.8673C125.312 51.8342 125.423 51.786 125.525 51.724C125.622 51.67 125.711 51.6015 125.788 51.521C125.856 51.448 125.911 51.363 125.949 51.2702L126.635 51.4792C126.569 51.6339 126.478 51.777 126.367 51.9032C126.249 52.033 126.112 52.1438 125.961 52.2316C125.799 52.3236 125.627 52.3957 125.448 52.4466C125.253 52.4999 125.052 52.526 124.851 52.5242C124.553 52.5297 124.258 52.4706 123.986 52.351C123.734 52.2395 123.507 52.0792 123.317 51.8793C123.127 51.6803 122.979 51.4446 122.882 51.1866C122.774 50.9212 122.719 50.6371 122.721 50.3506Z" fill="#555E66"/>
<path d="M131.403 48.2726H132.184L130.543 50.3028L132.298 52.4466H131.522L130.09 50.6134H129.601V52.4466H128.914V48.2666H129.601V50.058H130.006L131.403 48.2726Z" fill="#555E66"/>
<path d="M135.013 51.4554L137.286 48.2726H137.883V52.4526H137.196V49.3296L134.965 52.4526H134.368V48.2726H135.054L135.013 51.4554Z" fill="#555E66"/>
<path d="M142.298 52.5243C142.012 52.5325 141.727 52.4798 141.463 52.3696C141.199 52.2595 140.961 52.0944 140.765 51.8854C140.575 51.6857 140.427 51.4502 140.329 51.1927C140.223 50.9268 140.171 50.6428 140.174 50.3567C140.171 50.0725 140.223 49.7904 140.329 49.5267C140.428 49.2689 140.578 49.0336 140.77 48.8346C140.962 48.6357 141.191 48.4771 141.445 48.3682C141.716 48.2513 142.009 48.1924 142.304 48.195C142.602 48.1914 142.897 48.2525 143.169 48.3742C143.416 48.4828 143.639 48.6404 143.824 48.8375C144.008 49.0345 144.151 49.2669 144.243 49.5207C144.343 49.7776 144.394 50.0511 144.393 50.3268V50.488C144.391 50.5258 144.391 50.5637 144.393 50.6015H140.926C140.942 50.7972 140.991 50.9888 141.069 51.1688C141.147 51.3324 141.254 51.4802 141.385 51.6047C141.509 51.73 141.657 51.8294 141.82 51.8971C141.983 51.9647 142.158 51.9993 142.334 51.9988C142.461 51.9994 142.588 51.9813 142.71 51.9451C142.831 51.9154 142.948 51.8692 143.056 51.8077C143.159 51.7497 143.254 51.6774 143.336 51.5928C143.418 51.5083 143.483 51.409 143.527 51.3002L144.124 51.4733C144.051 51.6286 143.954 51.7716 143.838 51.8973C143.716 52.0274 143.575 52.1381 143.42 52.2257C143.258 52.3232 143.083 52.3976 142.901 52.4467C142.704 52.4996 142.502 52.5257 142.298 52.5243ZM143.73 50.076C143.715 49.8871 143.665 49.7027 143.581 49.5326C143.505 49.3714 143.4 49.2256 143.271 49.1027C143.145 48.9834 142.997 48.89 142.835 48.828C142.496 48.6927 142.118 48.6927 141.779 48.828C141.616 48.8899 141.467 48.9855 141.344 49.1087C141.217 49.2304 141.114 49.3741 141.039 49.5326C140.959 49.7034 140.913 49.8878 140.902 50.076H143.73Z" fill="#555E66"/>
<path d="M150.073 53.402C150.153 53.4725 150.243 53.529 150.342 53.5692C150.43 53.6005 150.523 53.6166 150.616 53.617C150.697 53.6077 150.775 53.5797 150.843 53.5351C150.912 53.4906 150.969 53.4307 151.01 53.3602C151.177 53.0761 151.3 52.768 151.374 52.4466L149.584 48.2666H150.312L151.738 51.8076L153.033 48.2666H153.701L151.881 53.0437C151.802 53.2474 151.713 53.4467 151.613 53.6408C151.536 53.778 151.442 53.9045 151.332 54.017C151.24 54.102 151.133 54.1689 151.016 54.2141C150.896 54.2513 150.771 54.2695 150.646 54.2679C150.529 54.2696 150.412 54.2535 150.3 54.2201C150.204 54.1867 150.117 54.1291 150.049 54.0529L150.073 53.402Z" fill="#555E66"/>
<path d="M155.599 50.3507C155.596 50.0671 155.646 49.7855 155.748 49.5207C155.845 49.2645 155.993 49.0308 156.183 48.834C156.372 48.6341 156.599 48.4754 156.852 48.3682C157.125 48.2502 157.42 48.1911 157.717 48.195C158.094 48.1852 158.467 48.2825 158.791 48.4757C159.086 48.6515 159.324 48.9085 159.477 49.2161L158.785 49.4311C158.686 49.2358 158.53 49.0754 158.337 48.9713C158.145 48.8566 157.923 48.7986 157.699 48.8041C157.512 48.8045 157.326 48.8452 157.156 48.9235C156.989 49.0004 156.839 49.1101 156.714 49.246C156.592 49.3925 156.493 49.5578 156.422 49.7356C156.35 49.9265 156.314 50.1288 156.315 50.3328C156.314 50.7422 156.46 51.1384 156.726 51.4494C156.85 51.5888 157 51.7024 157.168 51.7838C157.338 51.8632 157.523 51.904 157.711 51.9032C157.834 51.9025 157.957 51.8844 158.075 51.8495C158.19 51.8152 158.3 51.7671 158.403 51.7062C158.499 51.6521 158.585 51.5836 158.66 51.5032C158.73 51.4318 158.785 51.3463 158.821 51.2524L159.507 51.4614C159.44 51.616 159.35 51.7591 159.238 51.8853C159.122 52.0136 158.987 52.1242 158.839 52.2138C158.675 52.3068 158.501 52.379 158.32 52.4287C158.125 52.482 157.924 52.5082 157.723 52.5064C157.427 52.512 157.134 52.4529 156.864 52.3332C156.61 52.2218 156.381 52.0615 156.189 51.8614C156.001 51.6609 155.853 51.4256 155.754 51.1688C155.65 50.9085 155.598 50.6308 155.599 50.3507Z" fill="#555E66"/>
<path d="M161.237 51.8734C161.386 51.8614 161.53 51.8187 161.661 51.748C161.792 51.6616 161.892 51.5363 161.947 51.3897C162.041 51.1553 162.107 50.9108 162.144 50.6612C162.198 50.3447 162.252 49.9386 162.305 49.4371L162.437 48.2726H165.032V52.4526H164.346V48.828H163.081L162.962 49.7297C162.884 50.279 162.807 50.7209 162.723 51.0732C162.664 51.3637 162.562 51.6436 162.419 51.9032C162.318 52.0893 162.164 52.2411 161.977 52.3392C161.791 52.4302 161.588 52.483 161.381 52.4944L161.237 51.8734Z" fill="#555E66"/>
<path d="M167.592 53.402C167.672 53.4725 167.762 53.529 167.861 53.5692C167.949 53.6 168.042 53.6161 168.135 53.617C168.216 53.6077 168.294 53.5797 168.362 53.5351C168.431 53.4906 168.488 53.4307 168.529 53.3602C168.696 53.0761 168.819 52.768 168.893 52.4466L167.103 48.2666H167.831L169.257 51.8076L170.552 48.2666H171.22L169.43 53.0437C169.356 53.2495 169.267 53.4492 169.162 53.6408C169.087 53.7792 168.992 53.9059 168.881 54.017C168.79 54.1033 168.682 54.1703 168.565 54.2141C168.445 54.2513 168.32 54.2695 168.195 54.2679C168.078 54.2696 167.961 54.2535 167.849 54.2201C167.752 54.1867 167.666 54.1291 167.598 54.0529L167.592 53.402Z" fill="#555E66"/>
<path d="M176.065 48.7981H174.102V52.4466H173.416V48.2666H176.065V48.7981Z" fill="#555E66"/>
<path d="M178.929 51.4554L181.203 48.2726H181.799V52.4526H181.113V49.3296L178.882 52.4526H178.285V48.2726H178.971L178.929 51.4554Z" fill="#555E66"/>
<path d="M17.6789 0L28.8252 19.3294L29.0161 19.6578H6.22836V19.6459L17.6789 0Z" fill="#00A2DB"/>
<path d="M0.333069 14.4089L14.6656 39.2498L21.2531 27.8266L13.514 14.4089H0.333069Z" fill="#555E66"/>
<path d="M26.9336 51.3001L48.2833 14.4089H35.0605L13.7108 51.3001H26.9336Z" fill="#768084"/>
<path d="M38.8973 58.0001L54.5367 30.89L54.8112 30.4362H22.8344V30.4481L38.8973 58.0001Z" fill="#35BFEF"/>
</svg>
