<svg width="154" height="39" viewBox="0 0 154 39" fill="none" xmlns="http://www.w3.org/2000/svg">
<path d="M46 16H49.1405L51.2066 20.4556L53.0041 16H56L51.1405 26H48.1776L49.6859 23.1876L46 16Z" fill="white"/>
<path d="M61.6088 16V19.7324H65.3758V16H68V26H65.3758V21.9542H61.6088V26H59V16H61.6088Z" fill="white"/>
<path d="M73 16H75.896V22.2997L80.0573 16H83V26H80.104V19.7043L75.9469 26H73V16Z" fill="white"/>
<path d="M90.3854 26H86V16H90.0601C91.1002 16 91.8632 16.2612 92.3571 16.7794C92.7068 17.2092 92.9253 17.7307 92.9866 18.2814C93.0478 18.8322 92.9492 19.3889 92.7025 19.8851C92.5164 20.2334 92.2177 20.5082 91.8551 20.6645C92.3851 20.699 92.8883 20.9097 93.2848 21.2632C93.5283 21.4983 93.718 21.7836 93.8407 22.0992C93.9634 22.4148 94.0163 22.7532 93.9956 23.0912C94.0113 23.4544 93.9508 23.8168 93.818 24.1552C93.6852 24.4936 93.4831 24.8004 93.2246 25.0559C92.5941 25.6866 91.6464 26 90.3854 26ZM88.7348 17.9968V19.9454H89.2368C89.6119 19.9817 89.986 19.8675 90.2769 19.628C90.3635 19.5424 90.4309 19.4394 90.4745 19.3258C90.5181 19.2122 90.537 19.0906 90.5299 18.9691C90.5373 18.7196 90.4464 18.4772 90.2769 18.2941C89.9802 18.067 89.6086 17.9608 89.2368 17.9968H88.7348ZM88.7348 21.8779V23.9791H89.3492C90.2287 23.9791 90.791 23.8425 91.0319 23.5773C91.1832 23.3793 91.2611 23.1348 91.2523 22.8857C91.2435 22.6366 91.1486 22.3982 90.9837 22.2113C90.7548 21.9944 90.1805 21.8819 89.301 21.8819L88.7348 21.8779Z" fill="white"/>
<path d="M104 16V18.2013H100.739V19.8613H103.826V22.0826H100.739V23.8027H104V26H98V16H104Z" fill="white"/>
<path d="M112.445 22.6913H110.727V26H108V16.0055H112.353C113.323 15.953 114.277 16.2751 115.016 16.905C115.342 17.2137 115.597 17.5884 115.766 18.0039C115.935 18.4195 116.012 18.8663 115.993 19.3143C116.023 19.7706 115.955 20.2279 115.795 20.6563C115.635 21.0847 115.386 21.4744 115.064 21.7998C114.34 22.4249 113.401 22.7445 112.445 22.6913ZM110.727 18.1056V20.5912H111.645C112.053 20.6248 112.46 20.5139 112.795 20.278C112.918 20.1614 113.014 20.0185 113.074 19.8599C113.133 19.7013 113.157 19.5312 113.141 19.3625C113.154 19.1987 113.132 19.0342 113.077 18.8793C113.023 18.7244 112.936 18.5826 112.823 18.463C112.497 18.1956 112.078 18.0672 111.657 18.1056H110.727Z" fill="white"/>
<path d="M127 21.5645V24.5213C126.246 24.7999 125.451 24.9604 124.645 24.9967C123.151 25.0466 121.697 24.5289 120.595 23.555C120.094 23.0968 119.696 22.5443 119.425 21.9317C119.145 21.3322 119 20.682 119 20.0243C119 19.3665 119.145 18.7164 119.425 18.1168C119.7 17.5125 120.092 16.9642 120.579 16.5012C121.102 16.0093 121.721 15.6232 122.401 15.3656C123.08 15.1081 123.807 14.9843 124.537 15.0016C125.377 15.0163 126.207 15.1828 126.984 15.4925V18.4763C126.697 18.139 126.335 17.869 125.924 17.6869C125.513 17.5047 125.065 17.4152 124.613 17.425C123.926 17.4066 123.256 17.6321 122.73 18.0589C122.436 18.303 122.202 18.6072 122.044 18.9495C121.887 19.2918 121.811 19.6635 121.821 20.0378C121.811 20.3909 121.881 20.7418 122.027 21.0658C122.173 21.3897 122.391 21.6787 122.666 21.9124C123.208 22.3649 123.909 22.6 124.625 22.5694C125.071 22.5709 125.513 22.4823 125.922 22.3092C126.331 22.1361 126.699 21.8825 127 21.5645Z" fill="white"/>
<path d="M138.086 26L137.436 24.3206H133.609L132.894 26H130L134.037 16H137.028L141 26H138.086ZM134.368 22.3439H136.709L135.522 19.1057L134.368 22.3439Z" fill="white"/>
<path d="M146.055 16H154V25.8614H151.31V18.1593H148.714V21.7528C148.714 23.3376 148.354 24.4708 147.633 25.1522C146.968 25.7357 146.105 26.0382 145.223 25.9961C144.812 25.9971 144.401 25.9519 144 25.8614V23.4842C144.2 23.5515 144.409 23.5863 144.619 23.5872C144.943 23.6025 145.262 23.4983 145.515 23.294C145.878 22.9771 146.055 22.3551 146.055 21.428V16Z" fill="white"/>
<path d="M49.6286 31.5995C49.3455 31.655 49.0873 31.7835 48.8868 31.9687C48.6864 32.1819 48.5627 32.4432 48.5317 32.719C48.6614 32.5762 48.8258 32.4608 49.0127 32.3816C49.1921 32.3096 49.3867 32.2724 49.5837 32.2724C49.7806 32.2724 49.9753 32.3096 50.1546 32.3816C50.325 32.4506 50.4779 32.5492 50.6042 32.6714C50.731 32.8015 50.83 32.9508 50.8964 33.1121C50.966 33.2868 51.001 33.4708 50.9998 33.656C51.0029 33.8433 50.9648 34.0294 50.8874 34.2038C50.8183 34.3616 50.7126 34.5049 50.5772 34.6246C50.4417 34.7442 50.2794 34.8375 50.1007 34.8986C49.9017 34.9672 49.6894 35.0009 49.4758 34.9978C49.2656 35.0094 49.0555 34.9748 48.8641 34.8972C48.6727 34.8196 48.506 34.7014 48.3788 34.5532C48.1008 34.1637 47.9702 33.7064 48.0057 33.2471C47.9757 32.7657 48.1172 32.2881 48.4103 31.8814C48.6998 31.5378 49.1222 31.3004 49.5972 31.2144L50.5907 31L50.6896 31.397L49.6286 31.5995ZM48.5407 33.6123C48.5392 33.7476 48.5651 33.882 48.6171 34.0093C48.6593 34.1254 48.7265 34.2332 48.8149 34.3269C48.9018 34.4131 49.0073 34.4833 49.1251 34.5333C49.2461 34.5835 49.3781 34.6093 49.5117 34.6088C49.6435 34.61 49.774 34.5856 49.8939 34.5373C50.0086 34.4938 50.1102 34.4272 50.1906 34.3428C50.2774 34.2562 50.3432 34.1549 50.3839 34.045C50.4332 33.9172 50.4575 33.783 50.4558 33.648C50.4566 33.5131 50.4323 33.379 50.3839 33.251C50.3383 33.139 50.2697 33.0354 50.1816 32.9453C50.0979 32.8607 49.9933 32.7941 49.8759 32.7508C49.7497 32.7024 49.6134 32.6781 49.4758 32.6793C49.3446 32.6787 49.2146 32.7017 49.0937 32.7468C48.9813 32.7901 48.8814 32.8552 48.8015 32.9374C48.7178 33.0222 48.6536 33.1207 48.6126 33.2272C48.5627 33.3507 48.5384 33.4812 48.5407 33.6123Z" fill="white"/>
<path d="M52.356 35.4188C52.4078 35.4664 52.4694 35.5039 52.5372 35.5292C52.6051 35.5545 52.6778 35.567 52.7511 35.5661C52.8101 35.5599 52.8667 35.5412 52.9164 35.5115C52.9662 35.4818 53.0077 35.4419 53.0376 35.3949C53.1594 35.2056 53.2487 35.0002 53.3025 34.786L52 32H52.5297L53.5673 34.3641L54.5094 32H55L53.6715 35.184C53.6185 35.3214 53.5532 35.4546 53.4761 35.582C53.4217 35.6742 53.353 35.7587 53.2721 35.8328C53.2058 35.8902 53.1275 35.9349 53.042 35.9641C52.9549 35.9889 52.864 36.001 52.7728 35.9999C52.6876 36.0011 52.6027 35.9904 52.521 35.9681C52.4508 35.9458 52.388 35.9075 52.3387 35.8566L52.356 35.4188Z" fill="white"/>
<path d="M56.5716 32L57.4497 33.1014L57.5 33.1957L57.5549 33.1014L58.4238 32H58.9954L57.7973 33.5043L59 35H58.4284L57.5549 33.9029L57.5 33.8171L57.4497 33.9029L56.5716 35H56L57.2027 33.5043L56.0092 32H56.5716Z" fill="white"/>
<path d="M62 32.36H60.5169V35H60V32H62V32.36Z" fill="white"/>
<path d="M64.0965 34.9998C63.948 35.0021 63.8006 34.9782 63.6626 34.9295C63.5347 34.8867 63.4174 34.8221 63.3174 34.7394C63.2165 34.6584 63.1361 34.5595 63.0814 34.449C63.0268 34.3386 62.9991 34.2192 63.0001 34.0986C62.9977 33.9719 63.0314 33.8468 63.0981 33.7348C63.1683 33.6235 63.2655 33.5275 63.3827 33.4536C63.5169 33.3726 63.665 33.3112 63.8212 33.2717C64.0016 33.2255 64.1887 33.2032 64.3764 33.2056C64.5328 33.2065 64.6888 33.219 64.8429 33.2428C64.9915 33.2646 65.137 33.3006 65.2768 33.3503V33.1146C65.2887 33.012 65.2745 32.9082 65.2352 32.8111C65.1959 32.7139 65.1325 32.6258 65.0497 32.5532C64.9669 32.4806 64.8668 32.4254 64.7567 32.3917C64.6466 32.3579 64.5295 32.3464 64.4138 32.3581C64.0367 32.3739 63.674 32.4907 63.3734 32.6929L63.1914 32.3787C63.5618 32.1426 64.0042 32.0114 64.4604 32.0025C64.828 31.9817 65.1901 32.0901 65.4681 32.3043C65.5914 32.4181 65.6869 32.5532 65.7487 32.7012C65.8105 32.8491 65.8373 33.0067 65.8274 33.1643V34.3466C65.8274 34.4624 65.8834 34.5203 66 34.5244V34.9378H65.86H65.7387C65.6908 34.9398 65.6429 34.9331 65.598 34.9181C65.5531 34.9032 65.5121 34.8804 65.4775 34.851C65.4142 34.7957 65.3746 34.7226 65.3655 34.6443V34.4417C65.2261 34.6216 65.0342 34.7645 64.8103 34.8551C64.5871 34.9489 64.3435 34.9983 64.0965 34.9998ZM64.2365 34.636C64.4258 34.638 64.6135 34.6041 64.7869 34.5368C64.9395 34.4855 65.0723 34.3965 65.1695 34.2805C65.2051 34.2538 65.2342 34.2209 65.255 34.184C65.2759 34.147 65.2881 34.1067 65.2908 34.0655V33.6521C65.0244 33.5612 64.7412 33.5149 64.4557 33.5156C64.2195 33.5056 63.9854 33.5589 63.7839 33.6686C63.7039 33.7115 63.6381 33.7722 63.593 33.8448C63.548 33.9174 63.5253 33.9992 63.5273 34.082C63.5249 34.1603 63.5425 34.238 63.5786 34.3094C63.6142 34.3795 63.6649 34.4427 63.728 34.4955C63.7954 34.5473 63.8728 34.5879 63.9566 34.6153C64.0478 34.6367 64.1425 34.6437 64.2365 34.636Z" fill="white"/>
<path d="M67 34.5587C67.1193 34.5536 67.2355 34.5231 67.3391 34.4696C67.4422 34.4082 67.5213 34.3191 67.5651 34.215C67.6395 34.0486 67.6917 33.8748 67.7206 33.6973C67.7645 33.4767 67.8069 33.1938 67.8477 32.8487L67.9466 32H70V34.9703H69.4584V32.3904H68.46L68.3658 33.0354C68.3046 33.4215 68.2433 33.7398 68.1774 33.9859C68.1304 34.1941 68.0477 34.3945 67.9325 34.5799C67.8535 34.7109 67.7341 34.8185 67.5887 34.8897C67.4403 34.9517 67.2808 34.989 67.1177 35L67 34.5587Z" fill="white"/>
<path d="M72.1966 35H71.8034V32.4286H71V32H73V32.4286H72.1966V35Z" fill="white"/>
<path d="M75.5116 34.9998C75.3004 35.0036 75.091 34.9626 74.8976 34.8798C74.7171 34.8055 74.5542 34.6957 74.4191 34.557C74.2867 34.417 74.182 34.2543 74.1101 34.0771C73.9633 33.7043 73.9633 33.2915 74.1101 32.9186C74.183 32.7422 74.2893 32.5808 74.4234 32.4428C74.5651 32.3003 74.735 32.1875 74.9229 32.1114C75.1107 32.0353 75.3125 31.9974 75.5158 32.0001C75.7254 31.9979 75.9331 32.0388 76.1255 32.1201C76.3028 32.1975 76.4626 32.3086 76.5955 32.447C76.7261 32.5828 76.827 32.7433 76.8919 32.9186C76.9628 33.0952 76.9987 33.2834 76.9977 33.4731C77 33.5103 77 33.5475 76.9977 33.5847C77.0008 33.6109 77.0008 33.6372 76.9977 33.6634H74.5419C74.548 33.7998 74.5826 33.9335 74.6436 34.0564C74.697 34.1708 74.7717 34.2746 74.8637 34.3626C74.9529 34.4474 75.0578 34.5148 75.1728 34.5612C75.2888 34.6112 75.4144 34.6365 75.5412 34.6357C75.6314 34.6355 75.7212 34.6229 75.8079 34.5984C75.8913 34.5743 75.9721 34.5424 76.0493 34.5033C76.1249 34.4631 76.1935 34.4114 76.2525 34.3502C76.31 34.2928 76.3559 34.2255 76.388 34.1516L76.8114 34.2674C76.7638 34.3763 76.6963 34.4758 76.6124 34.5612C76.5253 34.6517 76.4255 34.7297 76.316 34.7929C76.1996 34.8604 76.0742 34.9119 75.9434 34.946C75.8028 34.9837 75.6574 35.0018 75.5116 34.9998ZM76.5277 33.3034C76.507 33.0461 76.3911 32.8049 76.2017 32.6249C76.1107 32.5445 76.0061 32.4801 75.8926 32.4346C75.6506 32.3406 75.381 32.3406 75.139 32.4346C74.9054 32.5262 74.7173 32.7027 74.6139 32.9269C74.5588 33.0457 74.5258 33.1732 74.5166 33.3034H76.5277Z" fill="white"/>
<path d="M80.6539 34.897C80.4157 34.9022 80.1813 34.8416 79.9809 34.7232C79.7902 34.6149 79.6316 34.465 79.519 34.2869V36H79V32.0324H79.4399V32.5617C79.5636 32.3963 79.7259 32.2583 79.9149 32.1577C80.1108 32.0521 80.3344 31.9976 80.5615 32.0001C80.7636 31.9986 80.9635 32.0386 81.1465 32.1173C81.3141 32.1985 81.4633 32.3082 81.5864 32.4405C81.7191 32.5776 81.8221 32.7366 81.8899 32.9091C81.9639 33.0857 82.0012 33.2735 81.9998 33.4627C82.0028 33.6565 81.9685 33.8494 81.8987 34.0324C81.8388 34.2039 81.7432 34.363 81.6172 34.501C81.4942 34.6303 81.3448 34.736 81.1773 34.8121C81.0119 34.8759 80.8331 34.9049 80.6539 34.897ZM80.4955 34.493C80.648 34.4989 80.7996 34.4683 80.9353 34.4041C81.0576 34.3455 81.1655 34.2643 81.2521 34.1657C81.3432 34.0659 81.4119 33.9506 81.4544 33.8263C81.5054 33.6968 81.5308 33.56 81.5292 33.4223C81.5283 33.2841 81.4999 33.1472 81.4456 33.0182C81.3931 32.8951 81.3171 32.7816 81.2213 32.6829C81.127 32.5871 81.0135 32.5089 80.887 32.4526C80.7487 32.3959 80.5984 32.3683 80.4471 32.3718C80.3481 32.3728 80.2499 32.3892 80.1568 32.4203C80.0573 32.4555 79.9628 32.5016 79.8753 32.5576C79.7863 32.6131 79.7076 32.6813 79.6422 32.7597C79.581 32.832 79.5388 32.9163 79.519 33.0061V33.8142C79.6023 34.0016 79.7372 34.1659 79.9105 34.291C79.9969 34.3474 80.0898 34.3948 80.1876 34.4324C80.2862 34.4658 80.3903 34.4836 80.4955 34.4849V34.493Z" fill="white"/>
<path d="M83.0001 33.5045C82.9982 33.3062 83.0371 33.1092 83.1146 32.9239C83.1891 32.7456 83.3011 32.5825 83.4443 32.4435C83.5919 32.3081 83.7659 32.199 83.9573 32.1218C84.1679 32.0376 84.3961 31.9963 84.626 32.0007C84.9152 31.9925 85.2009 32.0591 85.4504 32.1928C85.6768 32.3158 85.8596 32.4956 85.9771 32.7108L85.4504 32.8612C85.3718 32.7264 85.2526 32.6148 85.1069 32.5395C84.9052 32.4384 84.672 32.4023 84.4451 32.4372C84.2181 32.4721 84.0107 32.5759 83.8565 32.7317C83.7617 32.8339 83.6859 32.9496 83.6321 33.0743C83.5779 33.208 83.55 33.3494 83.5497 33.492C83.5524 33.6348 83.5818 33.776 83.6367 33.9098C83.6891 34.0384 83.7667 34.1573 83.8657 34.2607C83.9609 34.3569 84.0761 34.435 84.2046 34.4904C84.3344 34.5478 84.4772 34.5765 84.6214 34.574C84.7157 34.5732 84.8095 34.5619 84.9008 34.5406C84.9889 34.5166 85.0735 34.4829 85.1527 34.4403C85.2249 34.4011 85.2911 34.3533 85.3496 34.2983C85.4053 34.2494 85.4477 34.1893 85.4733 34.1228L86 34.269C85.9524 34.3789 85.8825 34.4795 85.7939 34.5656C85.7043 34.6554 85.601 34.7328 85.487 34.7954C85.3616 34.8605 85.2278 34.911 85.0886 34.9458C84.7166 35.0364 84.3223 35.0129 83.9664 34.8789C83.7739 34.7999 83.5997 34.6879 83.4535 34.5489C83.3072 34.4097 83.1935 34.2448 83.1191 34.0643C83.0419 33.886 83.0016 33.6962 83.0001 33.5045Z" fill="white"/>
<path d="M88.469 32H88.9328L87.9593 33.4572L89 35H88.5398L87.6903 33.6843H87.4071V35H87V32H87.4071V33.2857H87.6478L88.469 32Z" fill="white"/>
<path d="M91.3864 34.2886L92.678 32H93V35H92.6102V32.7586L91.339 35H91V32H91.3932L91.3864 34.2886Z" fill="white"/>
<path d="M96.5116 34.9998C96.3004 35.0036 96.091 34.9626 95.8976 34.8798C95.7171 34.8055 95.5542 34.6957 95.4191 34.5571C95.2854 34.4181 95.1804 34.2551 95.1101 34.0771C94.9633 33.7043 94.9633 33.2915 95.1101 32.9187C95.1815 32.7411 95.2883 32.5791 95.4242 32.442C95.5601 32.3049 95.7224 32.1956 95.9018 32.1202C96.0952 32.0373 96.3047 31.9964 96.5158 32.0002C96.7254 31.998 96.9331 32.0389 97.1255 32.1202C97.3028 32.1976 97.4626 32.3087 97.5955 32.4471C97.7261 32.5829 97.827 32.7434 97.8919 32.9187C97.9628 33.0953 97.9987 33.2834 97.9977 33.4731C98 33.5103 98 33.5476 97.9977 33.5848C98.0008 33.6109 98.0008 33.6373 97.9977 33.6634H95.5377C95.5438 33.7998 95.5784 33.9336 95.6393 34.0564C95.6928 34.1709 95.7674 34.2747 95.8595 34.3626C95.948 34.4482 96.0531 34.5158 96.1686 34.5612C96.2846 34.6112 96.4101 34.6366 96.5369 34.6357C96.6272 34.6355 96.717 34.623 96.8037 34.5984C96.8868 34.5735 96.9676 34.5417 97.0451 34.5033C97.1207 34.4631 97.1893 34.4114 97.2483 34.3502C97.3058 34.2938 97.3505 34.2261 97.3795 34.1516L97.8029 34.2675C97.7553 34.3763 97.6879 34.4758 97.6039 34.5612C97.5168 34.6517 97.417 34.7297 97.3076 34.7929C97.1912 34.8604 97.0658 34.9119 96.935 34.946C96.797 34.9829 96.6546 35.001 96.5116 34.9998ZM97.5277 33.3035C97.5069 33.0461 97.3911 32.805 97.2017 32.625C97.1099 32.5436 97.0037 32.4791 96.8883 32.4347C96.7699 32.388 96.6435 32.3641 96.5158 32.3643C96.3868 32.3645 96.2589 32.3883 96.139 32.4347C95.9054 32.5263 95.7173 32.7028 95.6139 32.927C95.5588 33.0458 95.5258 33.1733 95.5165 33.3035H97.5277Z" fill="white"/>
<path d="M101.352 35.4188C101.403 35.4664 101.465 35.5039 101.533 35.5292C101.601 35.5545 101.673 35.567 101.747 35.5661C101.806 35.5609 101.863 35.5426 101.913 35.5128C101.963 35.483 102.004 35.4425 102.033 35.3949C102.157 35.206 102.248 35.0006 102.302 34.786L101 32H101.53L102.567 34.3641L103.509 32H104L102.671 35.184C102.619 35.3214 102.553 35.4546 102.476 35.582C102.423 35.6751 102.354 35.7597 102.272 35.8328C102.206 35.8902 102.127 35.9349 102.042 35.9641C101.956 35.9885 101.867 36.0006 101.777 35.9999C101.691 36.0011 101.604 35.9903 101.521 35.9681C101.452 35.9443 101.389 35.9061 101.339 35.8566L101.352 35.4188Z" fill="white"/>
<path d="M105 33.4959C104.998 33.2986 105.037 33.1027 105.114 32.9184C105.19 32.7409 105.304 32.5786 105.448 32.4406C105.708 32.2087 106.043 32.0591 106.404 32.0142C106.765 31.9693 107.132 32.0314 107.451 32.1913C107.676 32.3142 107.856 32.493 107.973 32.7065L107.447 32.856C107.368 32.7219 107.249 32.6109 107.104 32.5361C106.954 32.4607 106.785 32.422 106.614 32.4239C106.469 32.4224 106.326 32.4493 106.194 32.5029C106.066 32.5554 105.952 32.6319 105.86 32.7272C105.763 32.8279 105.688 32.9432 105.636 33.0679C105.582 33.2009 105.554 33.3416 105.553 33.4834C105.546 33.7706 105.659 34.0497 105.869 34.2645C105.962 34.3601 106.076 34.4378 106.203 34.4931C106.332 34.5501 106.475 34.5786 106.619 34.5761C106.806 34.5781 106.99 34.532 107.149 34.4432C107.223 34.4042 107.291 34.3567 107.351 34.3019C107.403 34.2521 107.444 34.1926 107.47 34.1274L108 34.2728C107.949 34.3805 107.88 34.48 107.794 34.5678C107.703 34.657 107.598 34.734 107.483 34.7964C107.359 34.8604 107.227 34.9106 107.09 34.9459C106.941 34.983 106.787 35.0012 106.633 34.9999C106.405 35.0018 106.179 34.9608 105.97 34.8795C105.775 34.802 105.6 34.6904 105.453 34.5512C105.31 34.4106 105.197 34.2472 105.119 34.0693C105.042 33.8862 105.001 33.692 105 33.4959Z" fill="white"/>
<path d="M109 34.5587C109.119 34.5548 109.236 34.5242 109.339 34.4696C109.442 34.4082 109.521 34.3191 109.565 34.215C109.64 34.0486 109.692 33.8748 109.721 33.6973C109.765 33.4767 109.807 33.1938 109.848 32.8487L109.951 32H112V34.9703H111.458V32.3904H110.46L110.366 33.0354C110.309 33.4215 110.243 33.7398 110.182 33.9859C110.133 34.1935 110.05 34.3936 109.937 34.5799C109.856 34.7112 109.735 34.8188 109.589 34.8897C109.441 34.9522 109.281 34.9896 109.118 35L109 34.5587Z" fill="white"/>
<path d="M113.356 35.4188C113.413 35.4682 113.48 35.5074 113.552 35.5342C113.616 35.5551 113.684 35.5658 113.752 35.566C113.811 35.5599 113.868 35.5412 113.918 35.5115C113.968 35.4818 114.009 35.4419 114.039 35.3949C114.161 35.2056 114.251 35.0002 114.304 34.786L113 32H113.53L114.57 34.3641L115.513 32H116L114.696 35.184C114.643 35.3214 114.577 35.4545 114.5 35.582C114.444 35.6734 114.375 35.7577 114.296 35.8327C114.229 35.8894 114.15 35.9339 114.065 35.964C113.978 35.9889 113.887 36.001 113.796 35.9999C113.71 36.0013 113.625 35.9906 113.543 35.968C113.473 35.9458 113.41 35.9074 113.361 35.8566L113.356 35.4188Z" fill="white"/>
<path d="M119 32.36H117.517V35H117V32H119V32.36Z" fill="white"/>
<path d="M121.38 34.2756L122.663 32H123V34.983H122.613V32.7542L121.337 35H121V32.017H121.387L121.38 34.2756Z" fill="white"/>
<path d="M10.9162 6.76253L14.6887 13H20L19.8718 12.7868L12.1365 0L8 6.76253H10.9162Z" fill="white"/>
<path d="M0 10L9.59133 27L14 19.1859L8.81732 10H0Z" fill="white"/>
<path d="M28.2156 18L33 10H23.7803L19 18H28.2156Z" fill="white"/>
<path d="M14.5247 25L9 35H17.9143L19 33.0362L14.5247 25Z" fill="white"/>
<path d="M26.0513 39L36.8113 20.3126L37 20H15V20.0082L26.0513 39Z" fill="white"/>
</svg>
