<svg width="111" height="103" viewBox="0 0 111 103" fill="none" xmlns="http://www.w3.org/2000/svg">
<rect x="2.47729" y="0.5" width="84" height="102" fill="#263238" stroke="#263238"/>
<rect x="0.5" y="0.5" width="80" height="101.614" fill="white" stroke="#263238"/>
<path d="M47.4087 95.9072H74.2626V6.70682H6.63062V95.9072H19.5603M27.1854 95.9072H40.4466" stroke="#263238"/>
<rect x="21.0549" y="0.5" width="38.7835" height="9.73088" fill="white" stroke="#35BFEF"/>
<path d="M19.2286 24.8152L61.0013 24.8152" stroke="#263238"/>
<path d="M19.2286 33.534L61.0013 33.534" stroke="#263238"/>
<path d="M19.2286 42.2528L34.4799 42.2528" stroke="#263238"/>
<path d="M45.751 42.2528L61.0023 42.2528" stroke="#263238"/>
<path d="M37.1313 42.2528L43.7623 42.2528" stroke="#263238"/>
<path d="M19.2286 50.9717L61.0013 50.9717" stroke="#263238"/>
<rect x="0.0922788" y="0.701079" width="6.14601" height="68.5556" transform="matrix(0.793319 0.608806 -0.608762 0.793353 100.609 21.7735)" fill="#263238" stroke="#263238"/>
<rect x="0.0922788" y="0.701079" width="6.14627" height="4.2406" transform="matrix(0.793319 0.608806 -0.608762 0.793353 103.509 17.994)" fill="#263238" stroke="#263238"/>
<path d="M57.2842 77.957L58.1542 76.8231L63.2443 80.7292L62.2292 82.0521L58.9265 83.7213L56.3815 81.7683L57.2842 77.957Z" fill="#263238" stroke="#263238"/>
<path d="M56.8714 85.1468L58.3215 83.257L57.1877 82.3868L55.7375 84.2767L56.8714 85.1468Z" fill="#263238" stroke="#263238"/>
<rect x="0.0922788" y="0.701079" width="6.14601" height="68.5556" transform="matrix(0.793319 0.608806 -0.608762 0.793353 99.4513 20.6965)" fill="white" stroke="#263238"/>
<rect x="0.0922788" y="0.701079" width="6.14627" height="4.79709" transform="matrix(0.793319 0.608806 -0.608762 0.793353 102.352 16.9169)" fill="white" stroke="#35BFEF"/>
<path d="M103.709 24.8516L107.656 28.0808L88.5862 52.8974" stroke="#35BFEF"/>
<path d="M56.236 76.7372L57.1498 75.5463L62.4412 79.6069L61.375 80.9964L57.9198 82.7601L55.2742 80.7298L56.236 76.7372Z" fill="white" stroke="#35BFEF"/>
<path d="M55.7139 84.0697L57.164 82.1798L56.0301 81.3097L54.58 83.1995L55.7139 84.0697Z" fill="white" stroke="#35BFEF"/>
<path d="M54.4543 83.0786C53.0193 82.2582 51.4672 79.2248 50.7842 80.2087C49.9304 81.4387 49.5035 84.3085 46.5153 83.0786C43.527 81.8487 40.9657 74.0591 37.9775 72.4192C34.9892 70.7793 39.685 79.3888 37.9775 80.2087C36.2699 81.0287 35.4161 78.1589 34.1355 77.7489C32.8548 77.3389 34.9892 85.1285 32.4279 85.1285C29.8666 85.1285 24.7439 74.4691 20.475 76.109" stroke="#35BFEF"/>
</svg>
