<svg width="91" height="104" viewBox="0 0 91 104" fill="none" xmlns="http://www.w3.org/2000/svg">
<rect x="0.5" y="0.503906" width="83" height="102" fill="#263238" stroke="#263238"/>
<rect x="6.90985" y="0.503906" width="83" height="102" fill="white" stroke="#263238"/>
<path d="M57.252 25.477H15.252L15.252 6.64902H82.673V25.477H73.8309" stroke="#263238"/>
<path d="M61.673 25.4771H69.9625" stroke="#263238"/>
<rect x="65.4888" y="62.5254" width="16.6842" height="28.9032" stroke="#263238"/>
<rect x="48.9099" y="62.5255" width="16.6842" height="28.9032" stroke="#263238"/>
<rect x="32.3309" y="62.5254" width="16.6842" height="28.9032" stroke="#263238"/>
<rect x="15.7519" y="62.5254" width="16.6842" height="28.9032" stroke="#263238"/>
<rect x="15.752" y="76.9232" width="16.6842" height="14.5054" fill="#35BFEF" stroke="#263238"/>
<rect x="15.7519" y="62.5254" width="49.8421" height="14.5054" stroke="#263238"/>
<rect x="15.752" y="76.9232" width="49.8421" height="14.5054" stroke="#263238"/>
<rect x="65.4888" y="33.7297" width="16.6842" height="28.9032" stroke="#263238"/>
<rect x="48.9099" y="33.7297" width="16.6842" height="28.9032" stroke="#263238"/>
<rect x="32.3309" y="33.7297" width="16.6842" height="28.9032" stroke="#263238"/>
<rect x="15.752" y="33.7297" width="16.6842" height="28.9032" stroke="#263238"/>
<rect x="15.752" y="33.7297" width="66.4211" height="14.5054" stroke="#263238"/>
<rect x="15.752" y="48.1276" width="66.4211" height="14.5054" stroke="#263238"/>
<path d="M73.8309 71.9932L73.8309 76.4233L73.8309 80.8534" stroke="#35BFEF"/>
<path d="M78.252 76.4232L73.8309 76.4232L69.4098 76.4232" stroke="#35BFEF"/>
</svg>
