<svg width="91" height="109" viewBox="0 0 91 109" fill="none" xmlns="http://www.w3.org/2000/svg">
<mask id="path-1-inside-1_42_98" fill="white">
<path fill-rule="evenodd" clip-rule="evenodd" d="M0 69.5L7 63L15 72L22.5 65L29.5 72L37.5 63.9868L46 73.5L53 65L60.5 73.5L68 65L75.5 71.388L76.1081 78.7892H76.8229V87.4893L77 89.6444H76.8229V109H0V89.6443V78.7892V69.5Z"/>
</mask>
<path fill-rule="evenodd" clip-rule="evenodd" d="M0 69.5L7 63L15 72L22.5 65L29.5 72L37.5 63.9868L46 73.5L53 65L60.5 73.5L68 65L75.5 71.388L76.1081 78.7892H76.8229V87.4893L77 89.6444H76.8229V109H0V89.6443V78.7892V69.5Z" fill="#263238"/>
<path d="M7 63L7.74741 62.3356L7.06845 61.5718L6.31955 62.2672L7 63ZM0 69.5L-0.680451 68.7672L-1 69.0639V69.5H0ZM15 72L14.2526 72.6644L14.9333 73.4301L15.6823 72.7311L15 72ZM22.5 65L23.2071 64.2929L22.524 63.6097L21.8177 64.2689L22.5 65ZM29.5 72L28.7929 72.7071L29.5006 73.4148L30.2077 72.7065L29.5 72ZM37.5 63.9868L38.2457 63.3205L37.5403 62.5311L36.7923 63.2803L37.5 63.9868ZM46 73.5L45.2543 74.1663L46.0309 75.0355L46.7719 74.1357L46 73.5ZM53 65L53.7498 64.3384L52.9738 63.4588L52.2281 64.3643L53 65ZM60.5 73.5L59.7502 74.1616L60.5 75.0114L61.2498 74.1616L60.5 73.5ZM68 65L68.6484 64.2387L67.9003 63.6015L67.2502 64.3384L68 65ZM75.5 71.388L76.4966 71.3062L76.4628 70.8945L76.1484 70.6268L75.5 71.388ZM76.1081 78.7892L75.1115 78.8711L75.1869 79.7892H76.1081V78.7892ZM76.8229 78.7892H77.8229V77.7892H76.8229V78.7892ZM76.8229 87.4893H75.8229V87.5303L75.8263 87.5711L76.8229 87.4893ZM77 89.6444V90.6444H78.0855L77.9966 89.5625L77 89.6444ZM76.8229 89.6444V88.6444H75.8229V89.6444H76.8229ZM76.8229 109V110H77.8229V109H76.8229ZM0 109H-1V110H0V109ZM6.31955 62.2672L-0.680451 68.7672L0.680451 70.2328L7.68045 63.7328L6.31955 62.2672ZM15.7474 71.3356L7.74741 62.3356L6.25259 63.6644L14.2526 72.6644L15.7474 71.3356ZM21.8177 64.2689L14.3177 71.2689L15.6823 72.7311L23.1823 65.7311L21.8177 64.2689ZM30.2071 71.2929L23.2071 64.2929L21.7929 65.7071L28.7929 72.7071L30.2071 71.2929ZM36.7923 63.2803L28.7923 71.2935L30.2077 72.7065L38.2077 64.6934L36.7923 63.2803ZM46.7457 72.8337L38.2457 63.3205L36.7543 64.6531L45.2543 74.1663L46.7457 72.8337ZM52.2281 64.3643L45.2281 72.8643L46.7719 74.1357L53.7719 65.6357L52.2281 64.3643ZM61.2498 72.8384L53.7498 64.3384L52.2502 65.6616L59.7502 74.1616L61.2498 72.8384ZM67.2502 64.3384L59.7502 72.8384L61.2498 74.1616L68.7498 65.6616L67.2502 64.3384ZM76.1484 70.6268L68.6484 64.2387L67.3516 65.7613L74.8516 72.1493L76.1484 70.6268ZM77.1048 78.7074L76.4966 71.3062L74.5034 71.4699L75.1115 78.8711L77.1048 78.7074ZM76.1081 79.7892H76.8229V77.7892H76.1081V79.7892ZM75.8229 78.7892V87.4893H77.8229V78.7892H75.8229ZM77.9966 89.5625L77.8196 87.4074L75.8263 87.5711L76.0034 89.7262L77.9966 89.5625ZM76.8229 90.6444H77V88.6444H76.8229V90.6444ZM75.8229 89.6444V109H77.8229V89.6444H75.8229ZM76.8229 108H0V110H76.8229V108ZM1 109V89.6443H-1V109H1ZM1 89.6443V78.7892H-1V89.6443H1ZM-1 69.5V78.7892H1V69.5H-1Z" fill="#263238" mask="url(#path-1-inside-1_42_98)"/>
<mask id="path-3-inside-2_42_98" fill="white">
<path fill-rule="evenodd" clip-rule="evenodd" d="M14.7014 70.5L22.3313 63L29.9611 70.5L37.591 63L45.2208 70.5L52.8507 63L60.4806 70.5L68.1104 63L75.7403 70.5L83.3701 63L91 70.5V76V89V109H7V89V76V75.5V63L14.7014 70.5Z"/>
</mask>
<path fill-rule="evenodd" clip-rule="evenodd" d="M14.7014 70.5L22.3313 63L29.9611 70.5L37.591 63L45.2208 70.5L52.8507 63L60.4806 70.5L68.1104 63L75.7403 70.5L83.3701 63L91 70.5V76V89V109H7V89V76V75.5V63L14.7014 70.5Z" fill="white"/>
<path d="M22.3313 63L23.0323 62.2869L22.3313 61.5978L21.6302 62.2869L22.3313 63ZM14.7014 70.5L14.0037 71.2164L14.7047 71.899L15.4024 71.2132L14.7014 70.5ZM29.9611 70.5L29.2601 71.2132L29.9611 71.9022L30.6621 71.2131L29.9611 70.5ZM37.591 63L38.292 62.2869L37.591 61.5978L36.89 62.2869L37.591 63ZM45.2208 70.5L44.5198 71.2132L45.2208 71.9022L45.9218 71.2132L45.2208 70.5ZM52.8507 63L53.5517 62.2869L52.8507 61.5978L52.1497 62.2869L52.8507 63ZM60.4806 70.5L59.7795 71.2132L60.4806 71.9022L61.1816 71.2132L60.4806 70.5ZM68.1104 63L68.8114 62.2869L68.1104 61.5978L67.4094 62.2869L68.1104 63ZM75.7403 70.5L75.0393 71.2132L75.7403 71.9022L76.4413 71.2132L75.7403 70.5ZM83.3701 63L84.0712 62.2869L83.3701 61.5978L82.6691 62.2869L83.3701 63ZM91 70.5H92V70.0807L91.701 69.7869L91 70.5ZM91 109V110H92V109H91ZM7 109H6V110H7V109ZM7 63L7.69768 62.2836L6 60.6303V63H7ZM21.6302 62.2869L14.0004 69.7869L15.4024 71.2132L23.0323 63.7131L21.6302 62.2869ZM30.6621 69.7869L23.0323 62.2869L21.6302 63.7131L29.2601 71.2132L30.6621 69.7869ZM36.89 62.2869L29.2601 69.7869L30.6621 71.2131L38.292 63.7131L36.89 62.2869ZM45.9218 69.7869L38.292 62.2869L36.89 63.7131L44.5198 71.2132L45.9218 69.7869ZM52.1497 62.2869L44.5198 69.7868L45.9218 71.2132L53.5517 63.7131L52.1497 62.2869ZM61.1816 69.7869L53.5517 62.2869L52.1497 63.7131L59.7795 71.2132L61.1816 69.7869ZM67.4094 62.2869L59.7795 69.7869L61.1816 71.2132L68.8114 63.7131L67.4094 62.2869ZM76.4413 69.7868L68.8114 62.2869L67.4094 63.7131L75.0393 71.2132L76.4413 69.7868ZM82.6691 62.2869L75.0393 69.7868L76.4413 71.2132L84.0712 63.7131L82.6691 62.2869ZM91.701 69.7869L84.0712 62.2869L82.6691 63.7131L90.299 71.2131L91.701 69.7869ZM92 76V70.5H90V76H92ZM90 76V89H92V76H90ZM90 89V109H92V89H90ZM91 108H7V110H91V108ZM8 109V89H6V109H8ZM8 89V76H6V89H8ZM6 75.5V76H8V75.5H6ZM6 63V75.5H8V63H6ZM15.3991 69.7836L7.69768 62.2836L6.30232 63.7164L14.0037 71.2164L15.3991 69.7836Z" fill="#263238" mask="url(#path-3-inside-2_42_98)"/>
<path d="M0.5 0.5H90.5V52H0.5V0.5Z" fill="#263238" stroke="#263238"/>
<path d="M8.5 54.5L0.5 62V40.5H90.5V61L83 53.5L75.5 61L68 53.5L60.5 61L53 53.5L45.5 61L38 53.5L30.5 61L23 53.5L14 61L8.5 54.5Z" fill="#263238" stroke="#263238"/>
<mask id="path-7-inside-3_42_98" fill="white">
<path fill-rule="evenodd" clip-rule="evenodd" d="M91 0H7V42.5V53V55L15.0741 63.5L22.6667 55.8171L30.2593 63.5L37.8519 55.8171L45.4444 63.5L53.037 55.8171L60.6296 63.5L68.2222 55.8171L75.8148 63.5L83.4074 55.8171L91 63.5V53V42.5V0Z"/>
</mask>
<path fill-rule="evenodd" clip-rule="evenodd" d="M91 0H7V42.5V53V55L15.0741 63.5L22.6667 55.8171L30.2593 63.5L37.8519 55.8171L45.4444 63.5L53.037 55.8171L60.6296 63.5L68.2222 55.8171L75.8148 63.5L83.4074 55.8171L91 63.5V53V42.5V0Z" fill="white"/>
<path d="M7 0V-1H6V0H7ZM91 0H92V-1H91V0ZM7 55H6V55.3992L6.27496 55.6887L7 55ZM15.0741 63.5L14.349 64.1887L15.0599 64.937L15.7853 64.2029L15.0741 63.5ZM22.6667 55.8171L23.3779 55.1142L22.6667 54.3944L21.9554 55.1142L22.6667 55.8171ZM30.2593 63.5L29.548 64.2029L30.2593 64.9227L30.9705 64.2029L30.2593 63.5ZM37.8519 55.8171L38.5631 55.1142L37.8519 54.3944L37.1406 55.1142L37.8519 55.8171ZM45.4444 63.5L44.7332 64.2029L45.4444 64.9227L46.1557 64.2029L45.4444 63.5ZM53.037 55.8171L53.7483 55.1142L53.037 54.3944L52.3258 55.1142L53.037 55.8171ZM60.6296 63.5L59.9184 64.2029L60.6296 64.9227L61.3409 64.2029L60.6296 63.5ZM68.2222 55.8171L68.9335 55.1142L68.2222 54.3944L67.5109 55.1142L68.2222 55.8171ZM75.8148 63.5L75.1035 64.2029L75.8148 64.9227L76.5261 64.2029L75.8148 63.5ZM83.4074 55.8171L84.1187 55.1142L83.4074 54.3944L82.6961 55.1142L83.4074 55.8171ZM91 63.5L90.2887 64.2029L92 65.9345V63.5H91ZM7 1H91V-1H7V1ZM8 42.5V0H6V42.5H8ZM8 53V42.5H6V53H8ZM8 55V53H6V55H8ZM15.7991 62.8113L7.72504 54.3113L6.27496 55.6887L14.349 64.1887L15.7991 62.8113ZM21.9554 55.1142L14.3628 62.7971L15.7853 64.2029L23.3779 56.52L21.9554 55.1142ZM30.9705 62.7971L23.3779 55.1142L21.9554 56.52L29.548 64.2029L30.9705 62.7971ZM37.1406 55.1142L29.548 62.7971L30.9705 64.2029L38.5631 56.52L37.1406 55.1142ZM46.1557 62.7971L38.5631 55.1142L37.1406 56.52L44.7332 64.2029L46.1557 62.7971ZM52.3258 55.1142L44.7332 62.7971L46.1557 64.2029L53.7483 56.52L52.3258 55.1142ZM61.3409 62.7971L53.7483 55.1142L52.3258 56.52L59.9184 64.2029L61.3409 62.7971ZM67.5109 55.1142L59.9184 62.7971L61.3409 64.2029L68.9335 56.52L67.5109 55.1142ZM76.5261 62.7971L68.9335 55.1142L67.5109 56.52L75.1035 64.2029L76.5261 62.7971ZM82.6961 55.1142L75.1035 62.7971L76.5261 64.2029L84.1187 56.52L82.6961 55.1142ZM91.7113 62.7971L84.1187 55.1142L82.6961 56.52L90.2887 64.2029L91.7113 62.7971ZM90 53V63.5H92V53H90ZM90 42.5V53H92V42.5H90ZM90 0V42.5H92V0H90Z" fill="#263238" mask="url(#path-7-inside-3_42_98)"/>
<path d="M65.9813 89.8665C64.5462 89.0461 62.994 86.0128 62.311 86.9967C61.4571 88.2266 61.0302 91.0964 58.0418 89.8665C55.0534 88.6366 52.4919 80.8471 49.5035 79.2072C46.5151 77.5673 51.2112 86.1767 49.5035 86.9967C47.7958 87.8167 46.942 84.9469 45.6613 84.5369C44.3805 84.1269 46.5151 91.9164 43.9536 91.9164C41.3921 91.9164 36.2691 81.2571 32 82.897" stroke="#35BFEF"/>
<path d="M28.4497 18L70.7025 18" stroke="#263238"/>
<path d="M28.4497 26.7188L70.7025 26.7188" stroke="#263238"/>
<path d="M28.4497 35.4376L43.8753 35.4376" stroke="#263238"/>
<path d="M55.2769 35.4376L70.7025 35.4376" stroke="#263238"/>
<path d="M46.5581 35.4376L53.2649 35.4376" stroke="#263238"/>
<path d="M28.4497 44.1565L70.7025 44.1565" stroke="#263238"/>
</svg>
