<svg width="107" height="109" viewBox="0 0 107 109" fill="none" xmlns="http://www.w3.org/2000/svg">
<path d="M0.5 0.5H87.5V108.5H0.5V0.5Z" fill="#263238" stroke="#263238"/>
<path d="M0.5 0.5H81.5V108.5H0.5V0.5Z" fill="white" stroke="#263238"/>
<path d="M11.4633 15.5H26.4098V30.5H11.4633V15.5Z" fill="white" stroke="#263238"/>
<path d="M11.4633 40.5H26.4098V55.5H11.4633V40.5Z" fill="white" stroke="#263238"/>
<path d="M11.4633 65.5H26.4098V80.5H11.4633V65.5Z" fill="white" stroke="#263238"/>
<path d="M36.8764 18L68.7695 18" stroke="#263238"/>
<path d="M36.8764 27L68.7695 27" stroke="#263238"/>
<path d="M36.8764 43L68.7695 43" stroke="#263238"/>
<path d="M36.8764 52L68.7695 52" stroke="#263238"/>
<path d="M36.8764 68L68.7695 68" stroke="#263238"/>
<path d="M36.8764 77L68.7695 77" stroke="#263238"/>
<rect x="0.705273" y="-0.0303902" width="7.98627" height="27.8182" transform="matrix(0.674781 -0.738018 0.735765 0.677237 79.9845 83.1428)" fill="white" stroke="#263238"/>
<path d="M92.1894 65C92.1894 77.9803 81.7024 88.5 68.7695 88.5C55.8367 88.5 45.3497 77.9803 45.3497 65C45.3497 52.0197 55.8367 41.5 68.7695 41.5C81.7024 41.5 92.1894 52.0197 92.1894 65Z" fill="white" stroke="#263238"/>
<path d="M83.7084 76.6776C86.2135 73.4559 87.7061 69.4028 87.7061 65C87.7061 54.5066 79.2279 46 68.7695 46C58.3112 46 49.833 54.5066 49.833 65C49.833 75.4934 58.3112 84 68.7695 84C71.3815 84 73.87 83.4694 76.1338 82.5097M78.2378 81.4667C79.1496 80.9037 81.1414 79.5667 81.8147 78.7222" stroke="#263238"/>
<path d="M59.7996 60.5523L69.5805 70.366L92.8685 47" stroke="#35BFEF"/>
</svg>
